<svg width="662" height="64" viewBox="0 0 662 64" fill="none" xmlns="http://www.w3.org/2000/svg">
<g clip-path="url(#clip0_9_855)">
<path d="M97 0H217V64H97V0Z" fill="#F0141E"/>
<path d="M198.549 14.9181V5.11718H177.979L174.593 37.8474L171.247 5.11718H163.829L164.658 13.857C163.803 11.617 160.768 5.11718 154.084 5.11718C154.039 5.11334 146.657 5.11718 146.657 5.11718L146.626 52.8241L141.221 5.11718L131.505 5.11334L125.912 54.5428L125.915 5.11718H116.614L113.263 32.8829L109.998 5.11718H100.696V58.8554H108.021V32.9533L111.354 58.8554H115.248L118.533 32.9533V58.8554H132.654L133.508 50.5898H139.193L140.047 58.8554L153.912 58.8673H153.923V58.8554H153.94V41.4141L155.638 41.0865L159.156 58.8673H166.328L166.325 58.8554H166.346L161.729 38.0202C164.066 35.7229 166.709 29.8989 166.006 24.3249V24.3229C166.014 24.3953 170.365 58.8913 170.365 58.8913L178.893 58.8561L184.72 10.1511V58.8561H198.548V49.1924H191.986V36.8701H198.548V27.0589H191.986V14.9181H198.549ZM134.371 42.0705L136.384 19.0938L138.47 42.0705H134.371ZM155.661 31.4609C155.099 31.8202 154.513 32.0001 153.94 32.002V14.7188C153.949 14.7188 153.962 14.7169 153.977 14.7169C154.548 14.7111 158.825 14.9453 158.825 23.2637C158.825 27.6151 157.371 30.3594 155.661 31.4609ZM213.306 49.1834V58.8436H199.814V5.1095H207.08V49.1834H213.306Z" fill="white"/>
</g>
<g clip-path="url(#clip1_9_855)">
<path fill-rule="evenodd" clip-rule="evenodd" d="M598 0H662V64H598V0Z" fill="white"/>
<path fill-rule="evenodd" clip-rule="evenodd" d="M660.104 35.3437C659.979 35.3413 659.854 35.3641 659.737 35.4106C659.62 35.4571 659.513 35.5265 659.423 35.6146C659.333 35.7028 659.262 35.808 659.213 35.924C659.165 36.0401 659.14 36.1646 659.14 36.2905C659.14 36.4164 659.165 36.5409 659.213 36.657C659.262 36.773 659.333 36.8782 659.423 36.9664C659.513 37.0545 659.62 37.1239 659.737 37.1704C659.854 37.2169 659.979 37.2397 660.104 37.2373C660.229 37.2372 660.352 37.2125 660.467 37.1647C660.582 37.1169 660.686 37.047 660.773 36.9588C660.861 36.8707 660.931 36.7661 660.978 36.651C661.025 36.536 661.049 36.4127 661.049 36.2883C661.049 36.1643 661.024 36.0415 660.977 35.9269C660.929 35.8122 660.86 35.7081 660.772 35.6204C660.685 35.5327 660.58 35.4631 660.466 35.4156C660.351 35.3681 660.228 35.3437 660.104 35.3437ZM660.104 37.1234C659.995 37.1236 659.886 37.102 659.785 37.0601C659.684 37.0181 659.592 36.9566 659.514 36.879C659.437 36.8014 659.376 36.7093 659.334 36.6079C659.292 36.5065 659.271 36.3979 659.272 36.2883C659.272 36.1791 659.293 36.0709 659.335 35.9701C659.377 35.8692 659.438 35.7775 659.516 35.7004C659.593 35.6233 659.685 35.5621 659.786 35.5205C659.887 35.4789 659.995 35.4576 660.104 35.4579C660.213 35.4579 660.321 35.4794 660.422 35.5211C660.523 35.5629 660.614 35.624 660.691 35.7011C660.769 35.7783 660.83 35.8698 660.871 35.9706C660.913 36.0713 660.935 36.1793 660.934 36.2883C660.935 36.3977 660.914 36.5062 660.872 36.6074C660.831 36.7086 660.77 36.8007 660.693 36.8783C660.616 36.9558 660.524 37.0174 660.423 37.0595C660.322 37.1016 660.214 37.1233 660.104 37.1234Z" fill="black"/>
<path fill-rule="evenodd" clip-rule="evenodd" d="M660.59 36.0404C660.59 35.9511 660.551 35.8571 660.472 35.8123C660.392 35.7651 660.303 35.7605 660.214 35.7605H659.752V36.8187H659.882V36.3306H660.12L660.422 36.8187H660.575L660.256 36.3306C660.444 36.3253 660.59 36.2486 660.59 36.0404ZM660.08 36.2287H659.881V35.8545H660.183C660.315 35.8545 660.459 35.8744 660.459 36.0381C660.459 36.2536 660.228 36.2287 660.08 36.2287ZM654.554 30.9242L656.49 28.8572C656.602 28.7055 656.658 28.5992 656.658 28.5083C656.658 28.3565 656.528 28.2957 656.117 28.2957H655.629V26.9908H660.916V28.2957H660.221C659.419 28.2957 659.27 28.4169 658.15 29.8281L655.088 33.1353V35.1535C655.088 35.6698 655.348 35.8515 656.095 35.8515H657.251V37.1106H649.846V35.8515H651.002C651.748 35.8515 652.009 35.6698 652.009 35.1535V33.1353L648.402 29.1451C647.806 28.4475 647.889 28.2957 646.229 28.2957V26.9908H652.926V28.2957H652.449C651.964 28.2957 651.758 28.3867 651.758 28.5687C651.758 28.7208 651.907 28.842 652.001 28.9632L653.826 30.9521C654.042 31.1776 654.307 31.2068 654.554 30.9242ZM609.623 26.9905H611.238V30.6317H609.746C609.614 29.9038 609.158 29.6206 608.743 29.2388C607.994 28.5501 606.371 27.9766 605.005 27.9766C603.244 27.9766 601.757 28.5232 601.757 29.3268C601.757 31.5574 611.833 29.7823 611.833 34C611.833 36.1998 609.674 37.4287 605.798 37.4287C604.457 37.4287 602.426 37.0123 601.228 36.3761C600.853 36.1593 600.693 36.5813 600.623 37.1103H598.967V33.3475H600.465C600.795 34.3035 601.25 34.5004 601.669 34.8799C602.396 35.5476 604.125 36.0334 605.711 36.0178C608.102 35.9942 608.924 35.4716 608.924 34.7129C608.924 33.9545 608.111 33.7722 605.491 33.3628L603.266 32.9985C600.755 32.619 598.927 32.0578 598.927 30.0553C598.927 27.9767 601.24 26.6717 604.896 26.6717C606.437 26.6717 607.726 26.8776 608.963 27.5769C609.305 27.7997 609.627 27.8262 609.623 26.9905ZM641.148 33.0868L641.18 29.0399C641.18 28.5089 640.904 28.327 640.115 28.327H639.187V27.0678H645.088V28.327H644.319C643.529 28.327 643.253 28.5093 643.253 29.0399V37.1873L640.943 37.169L633.464 30.0868V35.2302C633.464 35.7462 633.74 35.9431 634.53 35.9431H635.556V37.1873H629.429V35.9431H630.444C631.233 35.9431 631.509 35.7459 631.509 35.2302V29.0399C631.509 28.5089 631.233 28.327 630.444 28.327H629.429V27.0678H634.727L641.148 33.0868ZM621.384 26.5953C616.682 26.5953 613.738 28.6743 613.738 32.0117C613.738 35.2893 616.641 37.3523 621.241 37.3523C626.126 37.3523 628.968 35.3195 628.968 31.845C628.969 28.7198 625.902 26.5953 621.384 26.5953ZM621.277 36.0328C618.674 36.0328 617.178 34.5306 617.178 31.936C617.178 29.4025 618.739 27.9003 621.407 27.9003C623.967 27.9003 625.463 29.433 625.463 32.0426C625.463 34.5914 623.945 36.0328 621.277 36.0328Z" fill="black"/>
</g>
<g clip-path="url(#clip2_9_855)">
<path fill-rule="evenodd" clip-rule="evenodd" d="M240 0H304V64H240V0Z" fill="white"/>
<path fill-rule="evenodd" clip-rule="evenodd" d="M301.176 31.9429C301.209 48.0568 288.172 61.1453 272.058 61.1765C255.944 61.2084 242.855 48.1714 242.824 32.0575C242.792 15.9439 255.828 2.85545 271.943 2.82391C288.057 2.79171 301.145 15.829 301.176 31.9429Z" fill="black"/>
<path fill-rule="evenodd" clip-rule="evenodd" d="M243.376 32.0568C243.408 47.8393 256.274 60.6558 272.058 60.6249C287.841 60.5941 300.656 47.7271 300.625 31.9442C300.593 16.1604 287.727 3.34482 271.944 3.37603C256.16 3.40724 243.346 16.2732 243.376 32.0568Z" fill="white"/>
<path fill-rule="evenodd" clip-rule="evenodd" d="M244.307 32.0551C244.336 47.3256 256.785 59.7241 272.055 59.6936C287.325 59.663 299.724 47.2164 299.694 31.9462C299.665 16.6756 287.216 4.27612 271.946 4.30633C256.675 4.33688 244.277 16.7845 244.307 32.0551Z" fill="black"/>
<path fill-rule="evenodd" clip-rule="evenodd" d="M255.219 32.0335C255.237 41.2864 262.78 48.7991 272.034 48.7815C281.287 48.7626 288.801 41.2203 288.783 31.9671C288.764 22.7135 281.221 15.2008 271.967 15.219C262.715 15.2376 255.201 22.7799 255.219 32.0335Z" fill="white"/>
<path fill-rule="evenodd" clip-rule="evenodd" d="M255.839 32.0322C255.858 40.9432 263.121 48.179 272.032 48.1607C280.944 48.1431 288.18 40.8787 288.161 31.9685C288.145 23.0576 280.879 15.8217 271.969 15.84C263.057 15.8573 255.822 23.121 255.839 32.0322Z" fill="black"/>
<path fill-rule="evenodd" clip-rule="evenodd" d="M256.212 32.0312C256.229 40.7383 263.325 47.8064 272.031 47.7892C280.738 47.7716 287.807 40.6752 287.791 31.9698C287.773 23.2631 280.676 16.1946 271.97 16.2118C263.263 16.2291 256.194 23.3258 256.212 32.0312ZM258.314 12.6648L261.132 10.5189L260.158 13.9497L263.094 15.9791L259.569 16.0369L258.575 19.4205L257.409 16.0428L253.824 16.084L256.631 13.9461L255.479 10.666L258.314 12.6648ZM285.311 48.1155L288.129 45.9703L287.155 49.4008L290.092 51.4302L286.567 51.4876L285.573 54.8716L284.407 51.4942L280.822 51.5351L283.629 49.3968L282.477 46.1171L285.311 48.1155ZM254.62 44.283L257.437 42.1378L256.464 45.5679L259.4 47.5973L255.875 47.655L254.881 51.039L253.715 47.6613L250.13 47.7018L252.937 45.5643L251.784 42.2845L254.62 44.283ZM289.873 17.4354L292.691 15.2895L291.717 18.72L294.654 20.7496L291.128 20.8074L290.135 24.1914L288.969 20.8134L285.384 20.8546L288.191 18.7166L287.038 15.4366L289.873 17.4354Z" fill="white"/>
<path fill-rule="evenodd" clip-rule="evenodd" d="M263.656 25.6765L256.342 31.2466L268.191 46.8053L275.365 41.3425L275.974 36.8416L267.909 26.2519L263.656 25.6765ZM269.708 38.1882L269.084 38.6627L264.43 32.5514L265.053 32.0766L269.708 38.1882Z" fill="black"/>
<path fill-rule="evenodd" clip-rule="evenodd" d="M256.864 31.3173C260.664 36.3062 264.463 41.2952 268.262 46.2844C268.796 45.877 274.79 41.313 275.017 41.14C275.053 40.8654 275.547 37.2201 275.585 36.9452L267.706 26.6005C267.433 26.564 264.032 26.1035 263.759 26.0667L256.864 31.3173ZM268.788 38.8885L263.908 32.4811L265.124 31.5547L270.229 38.2586L269.013 39.1847L268.788 38.8885Z" fill="white"/>
<path fill-rule="evenodd" clip-rule="evenodd" d="M257.385 31.388L268.332 45.7618L274.668 40.9368L275.195 37.0477L267.504 26.9485L263.862 26.4558L257.385 31.388ZM268.718 39.4101L263.387 32.41L265.194 31.0331L270.751 38.3294L268.943 39.7059L268.718 39.4101ZM278.249 28.1856L279.875 30.3212L279.252 30.796L274.669 24.7781L275.292 24.3036L276.919 26.4392L281.596 22.8772L278.299 18.5489L274.047 17.9735L268.912 21.8831L268.393 25.7247L276.683 36.6105L281.074 37.2045L285.754 33.6395L286.364 29.1382L282.925 24.624L278.249 28.1856Z" fill="black"/>
<path fill-rule="evenodd" clip-rule="evenodd" d="M269.261 22.0857L268.783 25.6217L276.886 36.2618L280.971 36.8147C281.198 36.642 285.18 33.6096 285.406 33.4373C285.443 33.1617 285.938 29.5164 285.974 29.2415C285.809 29.0253 283.238 25.6473 282.855 25.1453C282.37 25.5148 279.255 27.8871 278.77 28.2564C279.105 28.696 280.397 30.3926 280.397 30.3926L279.182 31.318L274.148 24.7077L275.362 23.7823C275.362 23.7823 276.655 25.4786 276.989 25.9179C277.474 25.5487 280.589 23.1764 281.074 22.8065L278.096 18.8972C277.823 18.8604 274.423 18.4002 274.149 18.3636C273.92 18.5366 269.489 21.9117 269.261 22.0857Z" fill="white"/>
<path fill-rule="evenodd" clip-rule="evenodd" d="M269.609 22.2885L269.173 25.5188L277.089 35.9139C277.35 35.9487 280.607 36.3897 280.868 36.4252C281.094 36.2532 284.832 33.4057 285.059 33.2341C285.097 32.9532 285.576 29.4091 285.586 29.3441L282.786 25.6672L279.292 28.3274L280.919 30.4633L279.111 31.8396L273.626 24.6363L275.433 23.26C275.433 23.26 276.725 24.9563 277.059 25.3963C277.529 25.0384 280.082 23.0937 280.552 22.7361C280.18 22.247 278.056 19.4573 277.894 19.2452L274.252 18.7524C274.025 18.9261 269.837 22.1155 269.609 22.2885Z" fill="black"/>
</g>
<g clip-path="url(#clip3_9_855)">
<path fill-rule="evenodd" clip-rule="evenodd" d="M328 0H392V64H328V0Z" fill="white"/>
<path fill-rule="evenodd" clip-rule="evenodd" d="M378.194 21.6282C378.801 18.2286 376.534 15.5571 373.903 13.6144C370.22 10.9027 366.052 9.28379 361.761 8.02906V52.8745C363.663 51.2153 365.566 49.3533 367.387 47.4508C371.272 43.1607 374.875 38.7896 376.372 33.5277C376.979 31.1401 376.655 28.4281 374.631 26.8091C376.372 25.4329 377.95 23.7329 378.194 21.6282ZM370.787 37.1298C369.451 39.5582 367.63 41.7845 365.484 43.8484L365.444 31.0179C366.901 29.9657 368.398 29.0347 370.22 28.8727C370.949 28.8727 371.596 29.1154 372.081 29.6821C373.701 32.2321 371.798 34.9036 370.787 37.1298ZM374.47 20.6162C374.105 22.6399 371.879 23.8136 370.301 24.6636C368.722 25.473 367.103 26.1205 365.444 26.7274V13.6141C367.994 14.383 370.301 15.6783 372.486 17.2166C373.499 18.0665 374.875 19.1187 374.47 20.6162ZM358.442 52.5504V7.8667L354.84 9.7287V33.6897C354.678 34.3773 355.164 35.4298 354.395 35.7536C354.192 35.7941 354.031 35.7134 353.95 35.5517C352.412 29.7635 351.764 23.6522 351.481 17.3786L351.359 11.9144L347.919 14.4644V15.9213C348.121 21.7095 348.526 27.3756 349.619 32.7992L348.243 34.3375C347.717 33.609 347.393 32.8397 347.028 32.0707C345.288 27.4569 344.641 22.3975 344.398 17.1764L341.403 19.4026C341.686 27.3357 343.184 34.8232 348 40.7728C348.931 39.7206 349.862 38.6276 350.793 37.6159C351.279 39.7611 351.967 41.8253 352.776 43.8487C354.111 46.9651 355.609 50.122 358.442 52.5504Z" fill="black"/>
<path fill-rule="evenodd" clip-rule="evenodd" d="M386.005 13.7356L380.621 12.4002L379.65 8.75758L374.146 7.46234L373.013 3.49596L360.021 0.54126L347.271 3.49563L346.138 7.46201L340.633 8.75724C340.269 10.0116 339.945 11.2262 339.621 12.4404L334.238 13.7353C333.833 25.1895 336.991 35.2675 342.697 44.2528C346.866 50.6881 353.14 57.488 360.021 60.8471C364.675 58.6209 368.804 54.8972 372.527 50.7283C381.553 40.2868 386.49 28.0636 386.005 13.7356ZM370.139 48.3819C367.184 51.7008 363.865 54.9789 360.142 56.8814C356.58 55.1004 353.464 52.0245 350.631 48.9078C343.264 40.2868 338.367 30.654 337.557 19.3618C337.476 18.4308 337.436 17.5407 337.476 16.5691L342.05 15.517L343.102 11.7528L348.728 10.4174L348.769 10.2959L349.781 6.41015L359.98 4.02222L370.503 6.41015L371.515 10.3765L377.222 11.7528L378.194 15.517L382.807 16.5691C382.686 28.873 377.788 39.1941 370.139 48.3819ZM371.839 60.4026C372.446 60.362 372.851 60.0383 372.851 59.35C372.851 58.5814 372.365 58.2168 371.434 58.2168H369.977V62.1022H370.624V60.4431H371.231L372.243 62.1022H372.931L371.839 60.4026ZM370.624 59.9168V58.7431H371.393C371.758 58.7431 372.203 58.8238 372.203 59.3095C372.203 59.8358 371.798 59.9168 371.312 59.9168H370.624Z" fill="black"/>
<path fill-rule="evenodd" clip-rule="evenodd" d="M371.353 56.9624C369.532 56.9624 368.034 58.4598 368.034 60.281C368.034 62.1022 369.532 63.5999 371.353 63.5999C373.174 63.5999 374.672 62.1022 374.672 60.281C374.672 58.4598 373.175 56.9624 371.353 56.9624ZM371.353 63.2762C370.959 63.2771 370.569 63.2002 370.205 63.05C369.842 62.8998 369.511 62.6792 369.233 62.4009C368.955 62.1226 368.734 61.792 368.584 61.4282C368.434 61.0644 368.357 60.6746 368.358 60.281C368.357 59.8874 368.434 59.4976 368.584 59.1338C368.734 58.77 368.955 58.4394 369.233 58.1611C369.511 57.8828 369.842 57.6622 370.205 57.512C370.569 57.3618 370.959 57.2849 371.353 57.2858C373.013 57.2858 374.348 58.6212 374.348 60.281C374.349 60.6746 374.272 61.0646 374.122 61.4284C373.972 61.7923 373.751 62.1229 373.473 62.4012C373.195 62.6795 372.864 62.9001 372.5 63.0503C372.136 63.2004 371.746 63.2772 371.353 63.2762Z" fill="black"/>
</g>
<path d="M444 0H456V64H444V0ZM420 0H432V64H420V0Z" fill="#D32F2F"/>
<path d="M456 64H444L420 0H432L456 64Z" fill="#F44336"/>
<g clip-path="url(#clip4_9_855)">
<path fill-rule="evenodd" clip-rule="evenodd" d="M0 0H64V64H0V0Z" fill="white"/>
<path fill-rule="evenodd" clip-rule="evenodd" d="M58.7485 52.6908V51.9385H2.72705V52.6908H58.7485ZM60.7848 44.0562C62.0312 44.0562 63.0592 45.0835 63.0592 46.3305C63.0592 47.5046 62.0312 48.5315 60.7848 48.5315C59.6104 48.5315 58.5831 47.5046 58.5831 46.3305C58.5831 45.0835 59.6104 44.0562 60.7848 44.0562ZM60.7848 44.4964C59.8309 44.4964 59.0234 45.3036 59.0234 46.3305C59.0234 47.2841 59.8309 48.0913 60.7848 48.0913C61.8114 48.0913 62.6186 47.2841 62.6186 46.3305C62.6189 45.3033 61.8114 44.4964 60.7848 44.4964ZM61.3711 47.5046L60.8575 46.477H60.3445V47.5046H59.9042V45.0835H61.078C61.2978 45.0835 61.5182 45.0835 61.738 45.2299C61.9578 45.3763 61.9578 45.5968 61.9578 45.8172C61.9578 46.2572 61.738 46.477 61.3708 46.477L61.8845 47.5046H61.3711ZM61.5182 45.7435C61.5182 45.4497 61.1517 45.4497 60.9312 45.4497H60.3442V46.1101H61.0776C61.3711 46.1104 61.5182 46.1104 61.5182 45.7435ZM15.4682 43.0518L16.0549 42.2446L16.1283 41.9518L16.5682 41.4378L17.2286 40.631L17.7419 40.1173L18.2556 39.6034L18.5491 39.3102L18.8426 39.017L19.1358 38.7232L19.2829 38.6498L19.4293 38.7232L19.3562 38.9436L18.9163 39.5303L18.476 40.3371L18.0358 40.8511L17.2286 42.0248L16.788 42.4648L16.3478 42.7586L16.0549 43.0518L15.6143 43.5651L14.8809 44.3729L14.5873 44.7395L14.1471 45.3262L13.6334 45.9132L15.4682 43.0518ZM19.3562 46.7937L19.5027 46.3535L19.7228 46.0599L19.9433 45.546L20.1631 45.1794L20.3102 44.8129L20.3829 44.3729V44.0057L20.53 43.6388L20.7504 43.1985L20.9702 42.6119L21.0433 42.2446L21.2637 41.9518L21.4102 41.5842L21.4835 41.3644L21.3368 41.2177L21.2637 41.0709L21.4835 40.631L21.7037 40.2641L21.9972 39.8235L22.2176 39.3836L22.4381 39.1634L22.805 38.503L23.1712 37.8426L23.6115 37.5495L23.978 37.1095L24.3456 36.7423L24.7855 36.1559L24.8586 36.0085L25.2255 35.642L25.1521 35.9351L25.0787 36.4488L24.7855 37.0361L24.7125 37.4027L24.6388 37.6959L24.492 38.0628V38.3563L24.4183 38.503V38.6498L24.492 38.7969V39.5303L24.3456 39.9703L24.0514 40.4105L23.7582 40.9245L23.4647 41.3644L23.2449 41.804L22.9511 42.2446L22.5845 42.5381L22.4381 42.6119L22.1439 42.9784L21.777 43.4921L21.4835 43.9323L21.1903 44.1525L21.0433 44.446L20.8972 44.6661L20.8235 44.9593L20.6767 45.3262L20.4572 45.6197L20.1631 45.8398L19.9433 46.133L19.7228 46.4268L19.6491 46.5736L19.5027 46.7937L19.3562 47.0135V46.7937ZM33.0022 33.0737L33.0756 33.3673V33.514L33.1489 33.8075L32.9291 34.2475L32.7824 34.5413L32.9291 35.1287L33.2954 36.229L33.5158 37.1822L33.7356 38.0628L34.0301 38.7969L34.6172 39.4569L34.9834 39.7501L35.4236 39.9703L35.6438 40.1907L35.9373 40.704L36.3038 41.3644L36.5977 41.8781L36.8912 42.6119L37.2571 43.1252L37.6246 43.7852L37.7714 44.3729L38.0652 44.8859L38.285 45.3992L38.5779 46.0599L38.7246 46.4268L38.9451 47.0135L39.1649 47.4541L39.3854 47.8203L39.4588 48.1139L39.6052 48.3343L39.7526 48.6282L39.899 48.7743L40.0454 48.9944L40.1188 48.8476L40.1922 48.5541L40.1188 48.3343L40.1922 48.1139L40.1188 47.8941L40.0454 47.7473L39.9717 47.6005L39.899 47.307L39.7526 47.0866L39.6052 46.7937L39.5318 46.4268V46.2064L39.4588 46.0599V45.8398L39.5318 45.6197L39.6786 45.546V45.3262L39.6052 45.0327L39.4588 44.6661L39.312 44.3729L39.0185 44.0791L38.7987 43.7852L38.5779 43.3456L38.4315 42.9054L38.285 42.5381L38.1383 42.318L37.9185 41.7317L37.7714 41.1443L37.5516 40.7774L37.4776 40.5569L37.4042 40.3371L37.5516 40.1173L37.698 39.9703V39.6767L37.5516 39.3102L37.4776 39.017L37.2571 38.7232L37.1107 38.503L37.0373 38.2099L36.8912 37.9897L36.6707 37.6225L36.5236 37.329L36.3776 36.9621L36.0834 36.5222L35.9373 36.1559L35.497 35.642L35.2032 35.2747L35.1301 35.1287L34.8363 34.7614L34.6172 34.3212L34.3967 34.0273L34.1762 33.5877L34.0301 33.3673L33.7356 32.8539L33.3687 32.3406L33.1489 31.9731L32.9291 31.6069L32.6353 31.2396L32.2691 30.7263L33.0022 33.0737ZM37.1107 34.2475L37.4042 34.5413L37.7714 34.9812L38.1383 35.3485L38.5779 35.7884L39.0185 36.229L39.4588 36.7423L39.7526 37.1095L40.1922 37.5495L40.3393 37.8426L40.486 37.9897L40.5591 38.2099L40.6325 38.7232L40.7058 39.017L40.9263 39.2368L41.2925 39.6034L41.8062 40.1907L42.2464 40.5569L42.6867 40.9245L43.4942 41.6576L43.714 41.9518L43.8601 42.2446L44.0072 42.5381L44.2276 42.832L44.4474 43.1252L44.7413 43.5651L44.8877 43.9323L45.1082 44.2989L45.4014 44.6661L45.5481 45.106L45.7679 45.3262L45.915 45.6931L46.0621 45.9132L46.2088 46.2797L46.4286 46.647L46.7218 47.0866L46.9423 47.6005L46.502 47.0135L46.0621 46.4268L45.2549 45.4726L44.6679 44.8859L44.2276 44.446L43.8601 43.9323L43.4208 43.5651L43.0533 43.1252L42.7601 42.9054L42.3932 42.832L42.1741 42.7586L41.9529 42.5381L41.8062 42.2446L41.5864 42.0248L41.2195 41.5842L40.8529 41.2177L40.5591 40.9245L40.3393 40.704L40.1188 40.3371L39.899 39.8972L39.6786 39.5303L39.4588 39.017L39.1649 38.503L38.7246 37.6225L38.4315 37.1095L38.1383 36.4488L37.9185 36.0085L37.6246 35.4952L37.4776 35.1287L37.2571 34.7614L37.1107 34.6881V34.5413L36.9639 34.3212L36.8181 33.8809L37.1107 34.2475ZM43.5676 38.503L43.8601 38.8703L44.1543 39.3102L44.3017 39.5303L44.3741 39.8235V40.2641L44.5208 40.4839L44.7413 40.704L44.9611 41.0709L45.3283 41.3644L45.6218 41.804L45.915 42.0248L46.1348 42.318L46.7952 43.0518L47.0887 43.4187L47.3826 43.7122L47.6024 43.9323L47.8962 44.2255L47.4559 43.4921L46.9423 42.832L46.6484 42.318L46.502 42.0982L46.3553 41.8781V41.3644L46.2822 41.1443L46.1348 40.9245L45.6945 40.4105L45.2549 39.8972L44.8147 39.4569L44.3741 39.0901L44.0072 38.7232L43.714 38.3563L43.3471 38.1365L43.5676 38.503Z" fill="black"/>
<path fill-rule="evenodd" clip-rule="evenodd" d="M6.14991 35.4222C6.14787 39.6935 7.26052 43.8913 9.37786 47.6009L11.6522 45.1798L13.8536 42.3184L16.4215 39.5307L21.6303 33.5144L22.2173 32.7809L22.9504 32.6345L23.3907 32.3413L25.9592 29.9198L26.9859 29.0396L30.1411 26.5448L30.7271 26.2513L31.4609 26.3984L32.3418 27.2786L33.8827 28.7461L35.0564 29.0396L36.8909 30.5806L39.2383 32.7812L40.7052 33.3683L42.6864 34.7624L44.301 36.6699L46.5747 39.8245L48.3355 41.7323L49.729 43.7132L50.7569 44.7405L51.7108 45.9879L52.3709 47.0145C54.4255 43.6398 55.0115 39.3112 55.0115 35.4232C55.0115 21.923 44.0806 10.9917 30.581 10.9917C17.0819 10.9904 6.14991 21.922 6.14991 35.4222Z" fill="black"/>
<path fill-rule="evenodd" clip-rule="evenodd" d="M14.5872 12.2375L14.2203 13.7784L15.6141 14.6589L14.0002 14.8057L13.6333 16.3463L12.9732 14.8787L11.3586 14.9521L12.6063 13.9255L11.9459 12.4576L13.3401 13.2648L14.5872 12.2375ZM35.3504 7.68871L33.8829 8.49587L34.2491 10.1102L33.0754 9.00951L31.6815 9.89004V9.81667L32.3419 8.34911L31.0949 7.24878L32.7085 7.39553L33.3686 5.92798L33.7355 7.54229L35.3504 7.68871ZM24.4919 7.90885L23.5379 9.22931L24.4919 10.5504V10.6235L22.9509 10.0368L21.997 11.3573V9.74329L20.4571 9.15627L21.997 8.716V7.10202H22.0704L22.9509 8.42249L24.4919 7.90885ZM29.7741 7.24878L28.6007 8.34911L29.2604 9.81667H29.1874L27.8666 9.00951L26.6195 10.1102L26.986 8.49587L25.5922 7.68871V7.61533L27.2065 7.46891L27.4997 5.92798L28.1597 7.39553L29.7741 7.24878ZM19.2827 9.67024L18.5489 11.1371L19.7226 12.2375L18.182 12.0177L17.4489 13.4846L17.1547 11.8706L15.5408 11.6504L17.0087 10.9173L16.7151 9.30335L17.8151 10.4034L19.2827 9.67024ZM4.7559 24.4168L5.19649 26.0305H6.81047L5.48934 26.911L6.00299 28.4516L4.68252 27.4977L3.36172 28.3786L3.87603 26.911L2.62861 25.9574V25.8841L4.16921 25.9574L4.7559 24.4168ZM7.17736 19.721L7.39716 21.3353L9.01114 21.6292L7.54392 22.2889L7.76438 23.9029L6.66339 22.7292L5.12279 23.3896L5.92961 21.9957L4.82961 20.8213L6.36987 21.1155L7.17736 19.721ZM10.5517 15.5391L10.4787 17.1534L11.9459 17.7401V17.8138L10.405 18.1807L10.3319 19.721V19.7947L9.45174 18.4005L7.8371 18.7671L8.86439 17.5203L8.05756 16.1992V16.1258L9.52512 16.7866L10.5517 15.5391ZM3.06854 29.3322H3.14159L3.87603 30.7994L5.48934 30.5059L4.31563 31.6802L5.12279 33.0738H5.04941L3.65556 32.3406L2.48152 33.514L2.70165 31.9L1.30747 31.1663L2.84841 30.9465L3.06854 29.3322ZM4.09516 45.4726H4.16921L5.56272 46.2064L6.7371 45.106L6.44358 46.7204L7.8371 47.4541L6.22345 47.6739L5.92961 49.2882L5.19649 47.8204L3.65556 47.9678L4.82961 46.9402L4.09516 45.4726ZM2.84841 40.1907L4.02212 41.2177L5.48934 40.4839L4.7559 41.9518L6.00299 42.9784L4.38901 42.832L3.65556 44.2989L3.36172 42.6856L1.74807 42.5382L3.14159 41.7317L2.84841 40.1907ZM2.40814 34.6881L3.43543 35.9352L4.97603 35.4222L4.02212 36.7423L5.04941 38.0628H4.97603L3.43543 37.5495L2.48152 38.8703V37.256L0.940918 36.8157L2.48152 36.3024L2.40814 34.6881ZM58.6072 26.2506L57.3601 27.2049L57.8737 28.7455H57.8004L56.5533 27.7919L55.2325 28.7455L55.7458 27.2049L54.4257 26.2506H56.039L56.5533 24.71L56.9929 26.2506H58.6072ZM55.9659 23.4626L54.499 22.8022L53.3984 23.9766L53.6182 22.3629L52.1506 21.7022L53.7649 21.4087L53.9854 19.7947L54.7188 21.1886L56.3328 20.895L55.2325 22.0691L55.9659 23.4626ZM53.3984 18.9138V18.9872L51.7837 18.5476L50.9035 19.9411L50.8305 18.3272L49.2895 17.9603L50.7571 17.3732L50.6837 15.6859L51.711 16.933L53.1779 16.3463H53.2519L52.3711 17.6668L53.3984 18.9138ZM49.9503 15.0992L48.3356 14.9521L47.6756 16.4197L47.309 14.8787L45.6944 14.7323L47.0885 13.9255L46.7217 12.3108L47.9687 13.3381L49.3629 12.5313L48.7035 13.9985L49.9503 15.0992ZM45.6944 11.7975L44.0811 11.944L43.7138 13.5583L43.0531 12.0914L41.4391 12.2375L42.6865 11.1371L42.0265 9.67024L43.4207 10.4767L44.5947 9.3764L44.3015 10.9173L45.6944 11.7975ZM40.7057 9.22931L39.2388 9.74329V11.4306L38.2849 10.1102L36.7439 10.6969V10.6235L37.6979 9.30335L36.7439 8.05626V7.98256L38.2849 8.49587L39.1647 7.1754V8.716L40.7057 9.22931ZM59.2679 42.7586L57.6533 42.9054L57.2867 44.446L56.7 42.9784L55.0857 43.1252L56.3328 42.0248L55.7458 40.557L57.0669 41.3644L58.314 40.3372L57.9468 41.8781L59.2679 42.7586ZM57.5065 48.0405L55.8925 47.8204L55.2325 49.2882L54.9393 47.7473L53.325 47.5275L54.7188 46.7204L54.4257 45.106L55.5994 46.2064L56.9929 45.4726H57.0669L56.3328 46.8668L57.5065 48.0405ZM60.2212 37.329H60.1478L58.6072 37.7693L58.4604 39.3836L57.6533 37.9897L56.1123 38.3563H56.039L57.1396 37.1095L56.3328 35.715L57.8004 36.3024L58.827 35.1287L58.6802 36.7423L60.2212 37.329ZM59.9273 31.9L58.4604 32.5604L58.6072 34.1744L57.5799 32.9273L56.1123 33.5877H56.039L56.9198 32.1936L55.8198 30.9465L57.4338 31.3134L58.2406 29.9192L58.3874 31.5332L59.9273 31.9ZM8.46363 55.2733L8.98524 56.3926L9.50652 55.2733H10.3173L8.98524 58.0096L7.65282 55.2733H8.46363ZM16.1368 57.9472L16.6006 56.8279L17.1796 57.9472H17.9327L16.6006 55.2109L15.3263 57.9472H16.1368ZM3.10573 57.9472L3.62701 56.8279L4.20639 57.9472H4.96009L3.62701 55.2109L2.29492 57.9472H3.10573ZM28.0957 58.0717L27.5166 56.89L27.1109 57.9472H26.3001L27.4585 55.2109L28.0957 56.5171L28.7328 55.2109L29.8916 57.9472H29.0805L28.6754 56.89L28.0957 58.0717ZM13.1548 55.2733H12.4599V57.9472H13.1548V55.2733ZM24.3023 55.2109C24.9975 55.2109 25.5772 55.8325 25.5772 56.5789C25.5772 57.3874 24.9975 58.0096 24.3023 58.0096C23.5499 58.0096 22.9702 57.3874 22.9702 56.5789C22.9702 55.8325 23.5499 55.2109 24.3023 55.2109ZM24.8817 56.5789C24.8817 56.2681 24.5925 55.9573 24.3023 55.9573C23.9553 55.9573 23.6651 56.2684 23.6651 56.5789C23.6651 56.9521 23.9553 57.2635 24.3023 57.2635C24.5925 57.2635 24.8817 56.9521 24.8817 56.5789ZM21.2333 57.2011V57.9472C21.1175 58.0096 21.0597 58.0096 20.9435 58.0096C20.2479 58.0096 19.6692 57.3874 19.6692 56.5789C19.6692 55.8325 20.2479 55.2109 20.9435 55.2109C21.0597 55.2109 21.1171 55.2109 21.2333 55.2733V55.9576H20.9435C20.654 55.9576 20.3641 56.2688 20.3641 56.5792C20.3641 56.9524 20.654 57.2638 20.9435 57.2638C21.0597 57.2635 21.1175 57.2635 21.2333 57.2011ZM48.9887 57.9472L49.51 56.8279L50.0316 57.9472H50.8421L49.51 55.2109L48.1776 57.9472H48.9887ZM42.4163 56.89L42.8788 57.9472H43.6906L42.474 55.2109L41.8366 56.5171L41.2582 55.2109L40.041 57.9472H40.8521L41.3153 56.89L41.8366 58.0717L42.4163 56.89ZM38.0727 55.2109C38.7673 55.2109 39.347 55.8325 39.347 56.5789C39.347 57.3874 38.7673 58.0096 38.0727 58.0096C37.3197 58.0096 36.74 57.3874 36.74 56.5789C36.74 55.8325 37.3197 55.2109 38.0727 55.2109ZM38.6518 56.5789C38.6518 56.2681 38.3619 55.9573 38.0727 55.9573C37.7251 55.9573 37.493 56.2684 37.493 56.5789C37.493 56.9521 37.7251 57.2635 38.0727 57.2635C38.3619 57.2635 38.6518 56.9521 38.6518 56.5789ZM34.7136 57.2635C34.366 57.2635 34.1339 56.9521 34.1339 56.5789C34.1339 56.2681 34.366 55.9573 34.7136 55.9573H35.0035V55.273C34.8873 55.2106 34.8298 55.2106 34.7136 55.2106C34.019 55.2106 33.4393 55.8321 33.4393 56.5785C33.4393 57.387 34.019 58.0092 34.7136 58.0092C34.8298 58.0092 34.8873 58.0092 35.0035 57.9468V57.2008C34.8873 57.2635 34.8295 57.2635 34.7136 57.2635ZM44.7029 55.2733V57.9475H45.3989V57.0772H45.862C46.3252 57.0772 46.6732 56.7658 46.6732 56.2684C46.6732 55.5841 46.2097 55.2733 45.6881 55.2733H44.7029ZM45.3985 56.5171V55.8952H45.5141C45.6877 55.8952 45.9195 55.8952 45.9195 56.206C45.9195 56.455 45.7458 56.5174 45.5141 56.5174H45.3985V56.5171ZM57.1831 56.2057L57.5889 55.2733H58.3997L57.5304 57.0769V57.9472H56.8362V57.0769L55.9095 55.2733H56.7193L57.1831 56.2057ZM53.2739 56.0818L53.6793 56.4547V55.2733H54.4333V58.0096L52.9847 56.89V57.9472H52.2316V55.2733L53.2739 56.0818Z" fill="black"/>
<path fill-rule="evenodd" clip-rule="evenodd" d="M12.3749 27.26C12.008 27.0402 11.7882 26.4536 11.7145 26.013C11.6411 25.6461 11.7145 25.3526 11.935 25.0594C12.0814 24.7659 12.522 24.7659 12.7425 24.8389C12.9623 24.986 13.109 25.1324 13.0357 25.3526C12.9623 25.7198 12.5954 25.9396 12.5954 26.3798C12.5954 26.7467 13.1087 26.9669 13.4019 27.0402C14.136 27.26 14.7961 27.1867 15.4565 26.7467C17.8042 24.7659 17.3639 21.2444 20.2257 19.8502L20.5922 19.7772C19.712 20.7308 19.5653 21.6847 19.1987 22.785C19.1987 22.8587 19.4922 22.785 19.639 22.785C20.7393 22.3451 21.3994 21.3908 21.3263 20.2908C21.3263 19.5567 20.7397 18.896 20.0796 18.6765C18.1721 18.0164 16.1906 18.383 14.8701 19.8502C14.0629 20.8038 13.6964 21.6843 13.9899 22.8587C14.0629 23.1522 14.3565 23.4454 14.724 23.5191C15.0906 23.6655 15.4571 23.7389 15.824 23.5191C16.411 23.372 15.1636 22.1983 16.6315 22.1983C16.7776 22.1983 16.9247 22.4188 16.9247 22.6386C16.9981 23.0058 16.7779 23.5191 16.4844 23.7389C15.824 24.1792 14.9438 24.3993 14.1367 24.1792C13.623 24.0328 13.1094 23.6659 12.8159 23.1522C12.4493 22.4918 12.5961 21.2447 13.0363 20.6574C14.1367 18.8233 16.1909 17.8697 18.2451 17.7963C19.8591 17.7229 21.4734 18.1632 22.354 19.4837C22.7208 20.071 22.7209 21.2447 22.2806 21.8314C21.5468 22.859 20.2263 23.3724 18.9789 23.4454C18.6854 25.2065 17.2916 26.8204 15.6039 27.4071C14.65 27.7006 13.2551 27.8471 12.3749 27.26ZM44.95 24.986V24.6191C44.4363 24.986 43.9227 25.2792 43.336 25.0594C43.1162 24.9126 43.1896 24.6191 43.2626 24.399C43.4831 23.7386 43.6292 23.4447 43.9227 22.7113C43.8493 22.5649 43.7022 22.7113 43.6289 22.7113C42.6749 23.4451 42.6016 24.1788 42.162 25.0594H41.2081L41.5012 24.5454C41.2081 24.8389 41.061 24.8389 40.6944 24.986C40.4746 25.0594 40.1808 25.2792 39.8876 25.0594C39.7405 24.9126 39.8135 24.7659 39.7405 24.6191C39.3002 24.986 38.7873 25.3526 38.1996 25.0594C37.9064 24.9126 38.0531 24.5454 38.1262 24.3259L38.6398 23.0788C38.4934 23.1522 38.1996 23.2253 37.9798 23.2986C37.5402 24.2529 36.8061 25.2061 35.6317 25.2795C35.3385 25.2061 34.9723 24.913 34.8989 24.6194C34.8249 24.5457 34.9723 24.5457 34.8989 24.5457C34.532 24.9126 33.945 25.2795 33.2843 25.0597C32.9904 24.913 33.1378 24.4727 33.2115 24.1792C33.5047 23.5191 33.4313 23.5925 33.7979 22.8587C33.945 22.3451 33.3583 22.5649 33.2843 22.785C32.6242 23.5922 32.6242 24.1788 32.1843 24.9863C31.8901 25.0597 31.5239 24.9863 31.23 24.9863C31.5969 24.1788 31.9638 23.5922 32.3307 22.7113C32.3307 22.6382 32.3307 22.4915 32.2566 22.4915C31.7433 22.5649 31.5969 23.0055 31.3031 23.3717L30.4959 25.0594H29.6887C29.6887 24.8389 29.7628 24.6922 29.8352 24.5454C29.4686 24.8389 29.0284 25.2058 28.442 25.0594C28.2942 24.9126 28.2215 24.6922 28.2942 24.4724C28.0014 24.5454 27.7813 24.8389 27.5611 24.986C27.2676 25.0594 26.9738 25.1324 26.6806 25.0594C26.2403 24.5454 26.6072 23.8857 26.9011 23.4451L27.1939 23.0785C26.9741 23.0051 26.6806 23.2249 26.4601 23.0051L26.3144 22.6379C25.5806 23.2983 25.5069 24.1051 25.0666 24.986H24.2595C24.2595 24.6918 24.3335 24.7655 24.4793 24.4724C23.9663 24.8389 23.5257 25.2058 22.8653 24.9126C22.7189 24.7659 22.7919 24.5457 22.7189 24.3993C22.2786 24.7659 21.7653 25.2061 21.1049 24.9126C20.8844 24.7659 20.8114 24.4724 20.9578 24.1788C21.2516 23.0788 22.2789 22.0512 23.3793 21.6843C23.8192 21.6113 24.3335 21.6113 24.6997 21.8308L23.5994 24.0321C23.5994 24.1785 23.5994 24.3256 23.7465 24.399C24.9202 23.8857 25.0669 22.7113 25.5806 21.8308H26.3871C26.3871 22.0512 26.1673 22.2717 26.2403 22.4181C26.6072 22.1246 26.9741 21.611 27.4144 21.6843C27.5615 22.0512 26.9741 22.3447 27.1939 22.7113C27.7079 22.6382 28.0748 22.1246 28.515 21.9782C29.0284 21.6843 29.6887 21.6113 30.2024 21.8311C29.9089 22.6382 29.4693 23.372 29.1017 24.1788C29.1017 24.3259 29.1017 24.3993 29.2488 24.3993C29.7628 24.2529 29.8355 23.8126 30.2024 23.5191L31.1566 21.8314H31.8897C31.8167 21.9785 31.7433 22.1253 31.7433 22.2724C32.1839 21.9788 32.6235 21.612 33.2112 21.8314C33.3576 21.9785 33.3576 22.1253 33.431 22.2724C33.8713 21.9051 34.3843 21.5386 34.9719 21.9051C35.1184 22.1256 34.9719 22.2724 34.8986 22.4191C34.6047 23.1526 34.2385 23.6662 34.0911 24.4C34.1645 24.5464 34.3109 24.4734 34.3843 24.4C35.3382 23.8133 35.045 23.0061 35.8518 22.2727C36.4388 21.8318 37.0996 21.4652 37.833 21.8318C38.1262 22.0522 38.0528 22.4191 38.1262 22.712C38.6398 22.7857 39.0808 22.3454 39.2999 21.9051C39.5204 21.8318 39.8876 21.8318 40.1074 21.9051L39.0808 24.2532C39.0808 24.3266 39.0808 24.3996 39.1535 24.473C40.3272 23.9597 40.4012 22.859 40.9149 21.9051C41.2081 21.8318 41.5012 21.9051 41.7954 21.9051C41.5009 22.712 41.0606 23.2993 40.7675 24.1061C40.7675 24.2532 40.621 24.473 40.8408 24.3996C41.8688 23.813 42.235 22.9324 42.6746 21.9048C42.9685 21.8314 43.1889 21.9048 43.4828 21.9048C43.4828 22.0516 43.3357 22.272 43.3357 22.4188C43.7759 22.0519 44.2896 21.6116 44.8766 21.8314C45.1698 22.0519 45.023 22.4188 44.95 22.6386L44.1425 24.3263C44.1425 24.3996 44.2159 24.4727 44.2896 24.4727C45.3162 24.0324 45.4633 23.0788 45.9769 22.1983C45.7571 22.1983 45.6101 22.1249 45.4633 22.1249C45.3162 21.6116 45.9769 21.9045 46.1234 21.8311L46.7841 20.5106H47.5175L47.0039 21.8311C47.1503 21.9045 47.3708 21.8311 47.5903 21.8311C47.5903 21.9782 47.5903 22.198 47.4445 22.272H47.5179C47.3715 22.272 47.151 22.272 46.7844 22.1983L45.8305 24.3263C45.8305 24.5461 45.6834 24.8396 45.9769 24.9867C46.564 25.06 46.8568 24.473 47.1507 24.0328H47.6643C47.0773 25.06 46.637 25.5 45.9036 25.5C45.6101 25.4993 45.0234 25.2792 44.95 24.986ZM22.0598 24.3256C22.94 23.8853 23.2332 23.0051 23.6734 22.2714C22.8663 22.0509 21.9864 23.298 21.7663 24.1785C21.7663 24.2522 21.913 24.399 22.0598 24.3256ZM35.8521 23.8123C35.8521 24.0321 35.6317 24.3256 35.8521 24.5454C35.9255 24.6918 36.0719 24.6191 36.146 24.5454C36.733 23.8123 37.0259 23.2983 37.1726 22.4181C37.1726 22.2717 37.0262 22.1976 36.9528 22.2717C36.2927 22.6379 36.146 23.1519 35.8521 23.8123ZM27.5621 24.3256C28.5157 23.9587 28.7362 23.0785 29.1761 22.3447C28.3686 22.198 27.7089 23.2983 27.415 24.0321C27.342 24.1785 27.415 24.399 27.5621 24.3256Z" fill="white"/>
</g>
<g clip-path="url(#clip5_9_855)">
<path fill-rule="evenodd" clip-rule="evenodd" d="M490 0H554V64H490V0Z" fill="white"/>
<path fill-rule="evenodd" clip-rule="evenodd" d="M509.604 31.1192L508.672 29.0583L507.885 29.0626L506.765 31.1198L509.604 31.1192ZM507.991 28.6057L508.534 28.6114L508.307 28.0048L507.991 28.6057ZM511.446 29.0218L511.033 31.1706L538.057 31.1776L537.292 29.0244H536.495L535.993 29.6101L535.432 29.0244L511.446 29.0218ZM515.418 26.4592L514.053 23.8183L513.067 23.8156L511.484 26.4496L515.418 26.4592ZM537.213 28.7027L536.899 27.8627L536.575 28.7027H537.213ZM528.268 23.5138V20.9887H527.623V20.1879L524.191 20.1846V20.993H523.621L523.428 21.5834L522.916 20.743L521.983 22.8172H521.475L521.62 22.2677L520.729 20.1743L520.235 20.1783L519.254 22.2783L519.371 22.8172H518.988L519.237 23.5115L528.268 23.5138ZM520.476 19.4033L520.304 19.8217H520.657L520.476 19.4033ZM527.623 19.9047V18.6446L528.082 17.6582L527.623 17.1794V16.0562H524.225L524.221 17.1781L523.784 17.6618L524.191 18.6403V19.9047H527.623ZM513.193 23.6134H513.989L513.61 22.8438L513.193 23.6134ZM508.255 27.1637L508.255 26.4701L506.737 26.8749L508.255 27.1637ZM513.619 21.9526L513.619 21.2593L512.101 21.6644L513.619 21.9526ZM520.439 18.5045L520.438 17.8112L518.92 18.216L520.439 18.5045ZM530.4 21.608L530.4 20.9147L528.882 21.3194L530.4 21.608ZM534.04 23.8684L534.039 23.1751L532.521 23.5802L534.04 23.8684ZM508.819 50.2664V49.7306H507.207V50.2664H507.699V53.434H507.207V53.9699H508.819V53.434H508.326L508.328 50.2664H508.819ZM520.032 50.3026V50.9773H520.541V49.7306H517.396V50.9773H517.907V50.3026H518.656V53.434H518.163V53.9699H519.775V53.434H519.283V50.3026H520.032ZM515.19 52.7198H514.501C514.432 52.8286 514.348 52.9276 514.252 53.014C513.846 53.3666 513.399 53.4682 512.95 53.3984C512.606 53.3404 512.291 53.1681 512.056 52.9094C511.733 52.5488 511.615 52.0962 511.657 51.6649C511.671 51.533 511.7 51.403 511.742 51.2775C511.782 51.1616 511.83 51.0646 511.887 50.9743C512.002 50.7921 512.155 50.6363 512.334 50.5171C512.573 50.361 512.851 50.2725 513.136 50.2607C513.422 50.249 513.705 50.3145 513.957 50.4504C514.172 50.5651 514.354 50.7349 514.483 50.9425H515.088V49.7306H514.561V50.1974C514.539 50.1757 514.517 50.1543 514.495 50.1333C514.333 49.9762 514.142 49.8516 513.933 49.7664C513.592 49.6296 513.174 49.5855 512.764 49.6691C512.625 49.6977 512.488 49.7402 512.358 49.796C511.912 49.9856 511.541 50.317 511.302 50.7389C510.978 51.3176 510.926 51.9863 511.158 52.6401C511.224 52.8214 511.315 52.9937 511.427 53.1511C511.649 53.4722 511.984 53.7232 512.291 53.8673C512.599 54.0137 512.874 54.0645 513.169 54.0731C513.46 54.0811 513.794 54.0154 514.126 53.8573C514.29 53.7783 514.445 53.678 514.584 53.5601C514.866 53.3247 515.082 53.0087 515.19 52.7198ZM537.286 53.4087H535.997V52.081H537.402V51.5763H535.997V50.3053H537.286V50.9249H537.915V49.7306H534.877V50.2664H535.37V53.434H534.877V53.9699H537.915V52.7756H537.286V53.4087ZM526.711 50.2664L526.709 49.7309H525.153V50.2664H525.591C525.591 51.0394 525.593 51.8124 525.59 52.5853C525.586 52.6906 525.568 52.8496 525.512 52.9911C525.482 53.0628 525.442 53.1305 525.393 53.1906C525.319 53.2814 525.226 53.3541 525.119 53.4033C525.013 53.4524 524.897 53.4766 524.78 53.4742C524.612 53.4759 524.447 53.4242 524.311 53.3264C524.243 53.2777 524.183 53.2185 524.134 53.1511C523.993 52.9625 523.968 52.7304 523.968 52.5159V50.2671H524.407V49.7316H522.851L522.849 50.2671H523.341C523.342 51.0753 523.34 51.8824 523.343 52.6906C523.349 52.9439 523.407 53.2122 523.566 53.4595C523.611 53.5306 523.668 53.6033 523.732 53.6691C523.908 53.8508 524.134 53.9766 524.382 54.031C524.681 54.101 524.993 54.0906 525.287 54.0007C525.584 53.9065 525.838 53.7098 526.004 53.4456C526.162 53.1989 526.218 52.9004 526.218 52.6192V50.2671H526.711V50.2664ZM532.05 53.434L531.295 52.4442C531.575 52.419 531.87 52.3589 532.171 51.9628C532.435 51.5942 532.481 51.1971 532.394 50.7944C532.366 50.6719 532.322 50.5537 532.263 50.4428C532.2 50.3262 532.121 50.2194 532.028 50.1257C531.933 50.0308 531.825 49.9514 531.705 49.8903C531.468 49.7644 531.194 49.7312 530.934 49.7309H529.019V50.2664H529.515V53.434H529.019V53.9699H530.557V53.434H530.136V50.308C530.434 50.3096 530.731 50.3016 531.03 50.3136C531.212 50.3315 531.417 50.3538 531.631 50.6217C531.712 50.7291 531.768 50.8534 531.795 50.9853C531.822 51.1173 531.82 51.2536 531.787 51.3844C531.738 51.5992 531.607 51.7868 531.423 51.908C531.227 52.0401 530.984 52.0627 530.759 52.0637L530.315 52.0607L531.657 53.9705H532.563V53.4346H532.05V53.434ZM541.081 53.9699V53.6568C541.131 53.7262 541.19 53.7896 541.257 53.8444C541.516 54.0569 541.807 54.1 542.096 54.0761C542.408 54.0497 542.7 53.9097 542.916 53.6827C543.098 53.4919 543.216 53.2489 543.253 52.9877C543.282 52.7804 543.262 52.569 543.193 52.3712C543.167 52.2934 543.131 52.2194 543.086 52.151C542.81 51.7652 542.468 51.6629 542.151 51.572C541.973 51.5248 541.795 51.4886 541.632 51.4295C541.524 51.3894 541.363 51.3173 541.278 51.1875C541.15 50.981 541.124 50.7671 541.242 50.5307C541.344 50.3448 541.49 50.2708 541.625 50.2266C541.854 50.1758 542.086 50.1506 542.342 50.4052C542.465 50.5394 542.506 50.6825 542.51 50.8276H543.077V49.7302H542.589V50.0447C542.517 49.9248 542.367 49.799 542.246 49.7498C542.112 49.693 541.968 49.6619 541.823 49.6582C541.566 49.6543 541.313 49.7231 541.093 49.8567C541.026 49.8978 540.964 49.9453 540.906 49.9985C540.588 50.3129 540.506 50.6642 540.555 51.0231C540.582 51.1965 540.644 51.3635 540.773 51.5308C540.931 51.7327 541.109 51.8356 541.29 51.9203C541.636 52.0816 541.987 52.0836 542.356 52.2911C542.449 52.3483 542.57 52.486 542.604 52.6089C542.66 52.7749 542.653 52.9698 542.562 53.1524C542.522 53.2294 542.468 53.2982 542.402 53.355C542.126 53.5741 541.787 53.5973 541.452 53.3921C541.207 53.2055 541.163 52.9834 541.152 52.7683H540.576V53.9692H541.081V53.9699ZM511.583 28.0589C511.574 28.2784 511.547 28.4972 511.502 28.7123L532.189 28.7027C531.743 28.1322 531.434 27.4668 531.287 26.758H529.716L529.539 27.0011L529.249 26.758L516.964 26.7557L516.487 27.9301L515.514 27.9331L516.032 26.756H511.426C511.549 27.1788 511.602 27.6189 511.583 28.0589ZM534.049 24.7393L533.367 26.4353H534.612L534.049 24.7393ZM534.692 26.7593H533.246L532.588 28.7027H535.351L534.692 26.7593ZM539.287 38.3799L538.801 36.586L533.998 36.5876C533.741 37.0964 533.382 37.5468 532.943 37.9108C532.724 38.0919 532.488 38.2501 532.236 38.3829L539.287 38.3799Z" fill="black"/>
<path fill-rule="evenodd" clip-rule="evenodd" d="M528.253 15.9011C528.236 15.9231 528.216 15.942 528.193 15.9569C530.72 16.4759 533.136 17.4378 535.328 18.798C537.518 20.1626 539.447 21.9065 541.025 23.9478C542.602 25.9902 543.803 28.2972 544.571 30.7606C545.334 33.2252 545.655 35.8054 545.52 38.3819H545.853C546.036 35.7619 545.744 33.107 544.986 30.5926C544.228 28.0782 543.004 25.7038 541.398 23.6254C539.791 21.5469 537.801 19.7646 535.559 18.3976C533.316 17.0307 530.821 16.0797 528.239 15.597C528.313 15.6856 528.33 15.7866 528.253 15.9011ZM525.955 11.3138L523.806 15.6285C523.776 15.6883 523.763 15.757 523.844 15.835C523.876 15.8599 523.914 15.8716 523.951 15.8702H527.902C527.949 15.8669 527.991 15.8712 528.049 15.7892C528.064 15.7639 528.072 15.7349 528.072 15.7054C528.071 15.6759 528.063 15.647 528.048 15.6219L525.955 11.3138ZM525.955 9.91833L524.437 10.3234L525.956 10.6116L525.955 9.91833ZM523.835 14.9601C521.753 14.8356 519.652 15.0013 517.616 15.4532C515.579 15.9051 513.605 16.6439 511.79 17.6572C509.974 18.6709 508.317 19.9588 507.149 21.0037C505.982 22.0482 505.305 22.8501 504.677 23.6868C504.05 24.5238 503.473 25.3957 502.97 26.3085C502.467 27.2209 502.039 28.1738 501.733 28.8368C501.428 29.4999 501.244 29.8744 501.09 30.2559C500.935 30.6374 500.809 31.0269 500.652 31.427C500.488 31.8401 500.304 32.2451 500.1 32.6405L500.843 32.9908C501.005 32.1579 501.223 31.3366 501.494 30.5325C501.63 30.1301 501.776 29.7317 502.065 29.0696C502.355 28.4072 502.787 27.4815 503.286 26.5927C503.786 25.7042 504.352 24.8525 504.967 24.0348C505.582 23.2173 506.244 22.4334 507.383 21.4081C508.521 20.3828 510.136 19.1161 511.904 18.1111C513.673 17.106 515.594 16.3626 517.58 15.8928C519.569 15.4233 521.613 15.2264 523.655 15.3074L523.835 14.9601ZM530.415 22.3597L529.996 23.5138H530.885L530.415 22.3597ZM518.575 26.4542L517.837 24.1184L517.055 26.4532L518.575 26.4542ZM529.715 26.4386H531.327V25.6285L531.655 25.2354L530.984 23.8359H529.887L529.372 25.234L529.713 25.6271C529.714 25.8977 529.717 26.1683 529.715 26.4386ZM519.365 26.4615H529.118C528.678 25.6448 528.39 24.7554 528.267 23.8362L519.392 23.8329C519.633 24.694 519.623 25.6056 519.365 26.4615ZM505.934 38.1395C505.988 38.1864 506.032 38.2431 506.064 38.3062L518.241 38.3142L518.235 36.5289L505.965 36.5355L505.543 38.0011C505.687 37.9954 505.827 38.045 505.934 38.1395ZM512.263 34.0619H505.933L505.937 35.8223H518.238C518.296 35.5152 518.386 35.2071 518.516 34.9003C517.117 34.4589 515.641 34.3167 514.184 34.4829C514.154 34.7268 514.033 34.9504 513.846 35.1101C513.553 35.3532 513.185 35.4169 512.82 35.2692C512.594 35.1731 512.411 34.9962 512.308 34.773C512.206 34.5498 512.189 34.2963 512.263 34.0619ZM530.73 34.0543L525.933 34.05C526.382 34.5762 526.735 35.178 526.975 35.8273L527.968 35.8227C528.204 35.5368 528.469 35.2755 528.758 35.0441C529.339 34.5797 530.01 34.2425 530.73 34.0543ZM515.209 32.9563C516.721 32.7102 518.27 32.8242 519.73 33.289C520.24 32.9579 520.769 32.6824 521.292 32.5688C521.474 32.5248 521.658 32.4906 521.843 32.4665C522.029 32.4423 522.215 32.427 522.495 32.4373C522.776 32.4476 523.149 32.4835 523.512 32.5662C523.875 32.6488 524.228 32.7787 524.561 32.9473C524.894 33.117 525.206 33.3252 525.491 33.5675H539.948L538.216 31.6259L506.463 31.5817L505.017 33.5758L513.014 33.5822C513.719 33.2887 514.456 33.0787 515.209 32.9563ZM529.084 44.0905C529.097 44.2536 529.164 44.4078 529.274 44.5291C529.356 44.62 529.459 44.689 529.574 44.7299C529.69 44.7708 529.813 44.7822 529.934 44.7631C530.077 44.7356 530.212 44.6776 530.33 44.5931C530.485 44.4783 530.539 44.3408 530.553 44.2017C530.575 43.8252 530.587 43.4483 530.589 43.0715C530.591 42.6946 530.582 42.3174 530.573 42.0007C530.563 41.6843 530.551 41.4279 530.538 41.1723C530.525 40.9166 530.509 40.6603 530.499 40.4959C530.493 40.3924 530.483 40.2892 530.468 40.1865C530.447 40.0452 530.414 39.9058 530.37 39.7698C530.323 39.6164 530.237 39.4775 530.121 39.3664C530.045 39.2844 529.939 39.2359 529.828 39.2314C529.716 39.227 529.607 39.2669 529.524 39.3425C529.428 39.4268 529.399 39.5487 529.362 39.6572C529.322 39.7924 529.295 39.9313 529.282 40.0719C529.271 40.1722 529.26 40.3083 529.25 40.4448C529.241 40.5809 529.234 40.7174 529.226 40.8771C529.21 41.2002 529.182 41.5876 529.133 41.9462C529.026 42.656 529.01 43.3765 529.084 44.0905ZM540.585 40.8502C540.435 40.3081 540.288 39.765 540.145 39.221L540.585 40.8502ZM538.803 34.0503L532.805 34.0546C533.014 34.0938 533.216 34.1675 533.4 34.2718C533.678 34.4295 533.913 34.6538 534.083 34.9245C534.254 35.1952 534.354 35.5039 534.376 35.823L538.803 35.8276V34.0503H538.803Z" fill="black"/>
<path fill-rule="evenodd" clip-rule="evenodd" d="M540.586 40.8501L540.726 41.4444C540.79 41.7197 540.855 41.9949 540.821 42.0408C540.787 42.0866 540.655 41.9026 540.523 41.7184C540.39 41.5589 540.259 41.3971 540.132 41.2329C539.927 40.9739 539.612 40.5695 539.423 40.3305C539.235 40.0921 539.173 40.019 539.109 39.9483C538.98 39.8071 538.841 39.6754 538.693 39.5542C538.613 39.4938 538.518 39.4565 538.419 39.4463C538.319 39.436 538.218 39.4532 538.128 39.4961C538.068 39.5243 538.013 39.5632 537.966 39.6107C537.92 39.6585 537.883 39.714 537.856 39.7747C537.608 40.2998 537.445 40.8604 537.371 41.4361L537.184 42.4983C537.061 43.0401 537.071 43.6079 537.266 44.173C537.293 44.2301 537.33 44.2876 537.387 44.3417C537.495 44.4389 537.633 44.4953 537.777 44.5012C537.922 44.5071 538.064 44.4621 538.179 44.3739C538.362 44.2341 538.408 44.0512 538.438 43.8732C538.538 43.1119 538.624 42.3485 538.717 41.5865C539.065 42.3318 539.501 43.0328 540.016 43.6746C540.215 43.8968 540.412 44.1016 540.609 44.1807C540.905 44.2989 541.209 44.2484 541.541 44.0266C541.611 43.9775 541.675 43.921 541.733 43.8586C541.848 43.7334 541.948 43.5953 542.033 43.4475C542.304 42.9827 542.346 42.4711 542.327 41.9704C542.314 41.6317 542.268 41.2951 542.19 40.9653C542.118 40.6658 542.023 40.3725 541.905 40.0881C541.787 39.8038 541.646 39.5295 541.483 39.268C541.321 39.006 541.139 38.7576 540.937 38.5253C540.761 38.3343 540.572 38.2437 540.373 38.2596C540.324 38.2663 540.277 38.2825 540.234 38.3078C540.073 38.4087 540.033 38.5472 540.045 38.684C540.066 38.8639 540.1 39.0426 540.145 39.2205L540.586 40.8501ZM542.702 40.21C542.868 40.4007 543.096 40.5271 543.345 40.5672L543.031 41.2588C542.979 41.2729 542.929 41.2956 542.884 41.3259C542.667 41.4886 542.629 41.6885 542.695 41.8996C542.713 41.9504 542.739 41.9986 542.772 42.0411C542.561 42.409 542.373 42.7845 542.316 43.1517C542.269 43.4469 542.384 43.764 542.51 44.0641C542.563 44.186 542.625 44.3042 542.687 44.422C542.79 44.6054 542.947 44.7524 543.137 44.8427C543.544 45.0157 544.014 44.9795 544.478 44.8225C544.815 44.6923 545.147 44.5482 545.472 44.3905C545.798 44.2328 546.117 44.0615 546.296 43.9599C546.475 43.8586 546.515 43.827 546.549 43.7895C546.709 43.594 546.701 43.3625 546.57 43.1195C546.534 43.0602 546.489 43.0069 546.437 42.9615C546.174 42.7344 545.859 42.7954 545.561 42.8306C545.241 42.8977 544.932 42.9827 544.617 43.0587C544.291 43.1763 543.964 43.2941 543.899 43.1653C543.835 43.0362 544.032 42.6603 544.229 42.2848C544.336 42.3017 544.445 42.312 544.553 42.3117C544.911 42.3113 545.269 42.317 545.628 42.3104C545.634 42.309 545.641 42.3077 545.689 42.2944C545.796 42.2659 546.018 42.2038 546.189 42.151C546.279 42.1294 546.4 42.0328 546.44 41.9455C546.483 41.8558 546.499 41.7562 546.489 41.6577C546.478 41.5592 546.441 41.4654 546.381 41.3867C546.258 41.225 546.092 41.1868 545.932 41.1605C545.549 41.1297 545.165 41.1197 544.78 41.0995L544.816 40.7083C545.124 40.7259 545.433 40.7203 545.741 40.6887C546.184 40.6429 546.599 40.5526 547.015 40.4723C547.104 40.4537 547.197 40.4145 547.284 40.3391C547.448 40.1884 547.485 40.0403 547.396 39.8617C547.316 39.724 547.225 39.5932 547.123 39.4705C546.966 39.2959 546.77 39.1593 546.552 39.071C546.334 38.9827 546.099 38.9451 545.864 38.9609C545.028 39.0044 544.217 39.0103 543.365 39.265C543.161 39.3258 542.96 39.3982 542.764 39.4812C542.684 39.5169 542.621 39.5809 542.586 39.6608C542.526 39.8188 542.539 40.0114 542.702 40.21ZM532.776 40.6698C534.04 40.5211 535.303 40.3816 536.569 40.2232C536.694 40.1973 536.85 40.1618 537.01 40.0161C537.182 39.853 537.217 39.7152 537.167 39.5555C537.146 39.4881 537.075 39.3962 536.965 39.3029C536.91 39.257 536.85 39.2177 536.786 39.186C536.715 39.1516 536.64 39.1252 536.562 39.1073C536.186 39.019 535.801 38.9769 535.415 38.9818C535.112 38.9808 534.81 38.992 534.509 39.0153C533.834 39.0737 533.168 39.2128 532.526 39.4297C532.302 39.5095 532.089 39.616 531.891 39.7471C531.796 39.8096 531.705 39.8783 531.619 39.9526C531.354 40.1854 531.252 40.4035 531.186 40.6449C531.137 40.887 531.183 41.1388 531.314 41.3478C531.38 41.4507 531.465 41.5417 531.564 41.6128C531.757 41.7542 531.996 41.7954 532.22 41.8362C532.663 41.9162 533.113 41.8219 533.558 41.8236C533.966 41.8273 534.381 41.8203 534.794 41.9056C535.165 41.9812 535.52 42.118 535.846 42.3104C535.962 42.393 535.98 42.4966 535.936 42.6092C535.902 42.6919 535.71 42.8436 535.566 42.9339C535.508 42.9702 535.448 43.0033 535.386 43.0328C534.431 43.4548 533.415 43.4764 532.41 43.1414C532.38 43.1251 532.352 43.1112 532.321 43.0521C532.297 42.9857 532.281 42.9103 532.384 42.8237C532.482 42.7732 532.591 42.7519 532.698 42.7446C532.891 42.7357 533.153 42.7838 533.398 42.8984C533.795 43.0724 534.232 43.1318 534.661 43.0697C534.875 43.0384 535.083 42.9775 535.279 42.8887C535.333 42.8637 535.376 42.8212 535.402 42.7682C535.428 42.7153 535.437 42.6554 535.427 42.5972C535.411 42.5142 535.335 42.3894 535.187 42.2649C535.032 42.142 534.83 42.0643 534.632 42.0145C534.539 41.9923 534.444 41.9769 534.348 41.9684C534.167 41.9493 533.986 41.9361 533.805 41.9289C533.419 41.9147 533.033 41.9311 532.65 41.9777C532.507 41.9953 532.424 42.0125 532.343 42.0364C532.262 42.06 532.183 42.0898 532.106 42.1257C532.032 42.16 531.96 42.2 531.892 42.2453C531.586 42.4641 531.496 42.6839 531.468 42.9223C531.463 42.9931 531.469 43.0643 531.485 43.1334C531.5 43.2028 531.526 43.2696 531.584 43.3682C531.641 43.4668 531.73 43.5966 531.834 43.7145C531.937 43.832 532.055 43.9376 532.183 44.0289C532.329 44.1313 532.486 44.2148 532.653 44.2773C532.856 44.3573 533.126 44.441 533.4 44.4997C533.675 44.5585 533.955 44.5924 534.235 44.6C534.516 44.6073 534.797 44.5887 534.998 44.5655C535.199 44.5422 535.32 44.5143 535.439 44.4811C535.672 44.4172 535.898 44.3309 536.115 44.2235C536.209 44.175 536.286 44.1295 536.359 44.0781C536.433 44.0273 536.503 43.9715 536.569 43.9111C536.782 43.7138 536.898 43.5312 536.968 43.3413C536.993 43.2732 537.014 43.2032 537.028 43.084C537.059 42.8466 537.05 42.4601 536.925 42.1427C536.869 41.9878 536.792 41.841 536.697 41.7064C536.608 41.5801 536.5 41.4677 536.378 41.373C536.136 41.1873 535.845 41.0749 535.541 41.0493C534.885 40.9769 534.225 40.9318 533.566 40.8225C533.301 40.7779 533.038 40.727 532.776 40.6698ZM508.321 41.8953C508.369 41.564 508.43 41.1855 508.521 40.8093C508.569 40.616 508.625 40.4254 508.677 40.2551C508.729 40.0848 508.775 39.935 508.818 39.784C508.86 39.6332 508.898 39.4812 508.921 39.3792C508.964 39.187 508.961 39.1359 508.96 39.022C508.958 38.9283 508.943 38.8267 508.879 38.7321C508.736 38.5316 508.55 38.5037 508.363 38.5286C508.221 38.5508 508.107 38.6773 508.012 38.8035C507.974 38.8536 507.937 38.905 507.902 38.9576C507.854 39.0301 507.811 39.1059 507.774 39.1843C507.713 39.3049 507.626 39.4918 507.546 39.682C507.314 40.2312 507.141 40.8431 507.026 41.4079C506.99 41.5938 506.963 41.7811 506.944 41.969C506.908 42.3316 506.905 42.6826 506.91 43.0149C506.911 43.1749 506.914 43.3353 506.928 43.4754C506.943 43.6155 506.97 43.7351 507.014 43.8483C507.058 43.9615 507.119 44.0684 507.195 44.1631C507.341 44.3407 507.509 44.4675 507.647 44.5319C507.881 44.6425 508.09 44.6581 508.335 44.6309C508.662 44.596 508.977 44.422 509.303 44.2026C509.379 44.1508 509.452 44.0967 509.561 44.0107C509.839 43.7893 510.109 43.559 510.371 43.32C510.362 43.575 510.364 43.8303 510.378 44.085C510.392 44.3397 510.417 44.5934 510.441 44.7683C510.464 44.943 510.484 45.0383 510.512 45.1322C510.571 45.3308 510.64 45.4981 510.757 45.6791C510.82 45.7747 510.9 45.879 510.997 45.9646C511.094 46.0506 511.207 46.1184 511.329 46.1635C511.451 46.2087 511.581 46.2306 511.668 46.2366C511.756 46.2425 511.801 46.2319 511.844 46.2153C511.918 46.1834 511.987 46.1426 512.051 46.035C512.106 45.9394 512.146 45.8129 512.151 45.697C512.153 45.6366 512.148 45.5762 512.146 45.4619C512.145 45.3477 512.146 45.1797 512.146 45.0124C512.146 44.8444 512.142 44.6767 512.142 44.4187C512.142 44.1611 512.146 43.8128 512.166 43.4655C512.208 42.7792 512.315 42.0882 512.482 41.4039C512.841 41.3116 513.199 41.2173 513.394 41.1645C513.588 41.1124 513.62 41.1018 513.65 41.0888C513.681 41.0759 513.71 41.0616 513.739 41.045C513.797 41.0128 513.896 40.9314 513.999 40.8275C514.397 40.4112 514.492 39.956 514.289 39.4808C514.232 39.3346 514.157 39.1961 514.066 39.0685C514.021 39.0075 513.97 38.9521 513.912 38.9034C513.855 38.8553 513.791 38.8154 513.723 38.7849C513.645 38.7501 513.563 38.7265 513.479 38.7148C513.276 38.6803 512.972 38.6803 512.715 38.7849C512.59 38.833 512.472 38.8991 512.287 39.0339C512.054 39.2074 511.829 39.392 511.614 39.5871C511.198 39.5518 510.791 39.4522 510.406 39.2919C510.325 39.2585 510.25 39.213 510.183 39.1571C510.124 39.1075 510.076 39.048 510.038 38.9815C510.002 38.9147 509.978 38.8403 509.955 38.7939C509.906 38.7009 509.859 38.6972 509.807 38.6753C509.747 38.6556 509.683 38.6567 509.625 38.6783C509.538 38.7132 509.446 38.7417 509.36 38.8802C509.313 38.9556 509.259 39.0711 509.235 39.1581C509.21 39.2451 509.216 39.3032 509.225 39.3962C509.235 39.4895 509.248 39.6183 509.286 39.7401C509.364 39.9858 509.501 40.1711 509.775 40.362C509.912 40.459 510.089 40.5672 510.267 40.6725C510.446 40.7771 510.626 40.8783 510.809 40.9749C510.68 41.4262 510.578 41.8849 510.505 42.3485L509.978 42.2987L508.751 42.7104C508.611 42.7732 508.453 42.7805 508.294 42.7041C508.184 42.6284 508.166 42.5262 508.243 42.4176L508.26 42.3635C508.277 42.2098 508.298 42.057 508.321 41.8953ZM496.841 37.9279L496.833 37.9276L497.054 38.0169C496.99 37.974 496.917 37.9438 496.841 37.9279Z" fill="black"/>
<path fill-rule="evenodd" clip-rule="evenodd" d="M506.843 43.1816C506.84 43.0076 506.836 42.8336 506.83 42.6597C506.828 42.5769 506.823 42.4943 506.814 42.412C506.807 42.3522 506.798 42.2931 506.714 41.8436C506.602 41.249 506.487 40.655 506.37 40.0616C506.271 39.5679 506.234 39.4201 506.191 39.274C506.104 38.9818 505.993 38.6974 505.859 38.424C505.832 38.3826 505.798 38.3465 505.758 38.3174C505.718 38.2889 505.673 38.268 505.625 38.2557C505.527 38.2311 505.382 38.2481 505.237 38.3022C505.16 38.3327 505.088 38.3763 505.026 38.431C504.88 38.5535 504.798 38.7554 504.661 38.9171C504.588 39.012 504.509 39.1037 504.421 39.2073C504.324 39.3189 504.231 39.433 504.14 39.5496C504.047 39.6708 503.96 39.7973 503.831 39.9998C503.702 40.2024 503.531 40.4813 503.369 40.7661C503.207 41.0507 503.055 41.3404 502.912 41.6351L502.525 41.6025C502.738 40.967 502.882 40.31 502.953 39.6432C503.025 38.9662 503.026 38.2487 502.929 37.5189C502.878 37.1477 502.799 36.7802 502.69 36.4216C502.582 36.063 502.445 35.713 502.336 35.4634C502.256 35.2754 502.163 35.093 502.059 34.9175C501.878 34.6142 501.669 34.3293 501.433 34.0668C501.296 33.9108 501.13 33.7305 500.963 33.5512C500.796 33.3719 500.628 33.1936 500.499 33.0675C500.369 32.9413 500.277 32.8669 500.178 32.8048C500.079 32.7427 499.972 32.6923 499.86 32.6557C499.762 32.624 499.66 32.601 499.557 32.587C499.424 32.5701 499.387 32.5897 499.312 32.6315C499.203 32.7055 499.168 32.8012 499.201 32.9014C499.209 32.923 499.221 32.9436 499.292 33.0299C499.363 33.1166 499.494 33.2687 499.623 33.4231C499.87 33.7186 500.083 33.9981 500.229 34.2568C500.3 34.3809 500.367 34.5078 500.448 34.6765C500.528 34.8445 500.623 35.054 500.717 35.2641C500.897 35.6722 501.064 36.059 501.168 36.4269C501.22 36.6062 501.26 36.7881 501.29 36.9721C501.32 37.156 501.339 37.3413 501.35 37.5462C501.382 38.177 501.349 38.8786 501.244 39.543C501.139 40.2196 500.93 40.8759 500.623 41.4883C500.152 42.4015 499.417 43.1518 498.513 43.6418C498.205 43.8134 497.858 43.9053 497.504 43.9091C497.339 43.9131 497.175 43.883 497.022 43.8208C496.948 43.7916 496.878 43.7553 496.811 43.7125C496.705 43.6441 496.617 43.5499 496.557 43.4388C496.496 43.3276 496.464 43.203 496.464 43.0764C496.81 42.788 497.133 42.4729 497.429 42.1341C497.716 41.8047 497.96 41.4833 498.145 41.1845C498.236 41.0387 498.321 40.8887 498.402 40.7366C498.482 40.5842 498.559 40.4291 498.634 40.2113C498.71 39.9929 498.785 39.7116 498.819 39.4248C498.852 39.1379 498.845 38.8457 498.797 38.5608C498.751 38.3044 498.68 38.0532 498.584 37.8111C498.509 37.6242 498.448 37.5272 498.375 37.4409C498.301 37.3543 498.216 37.2787 498.121 37.2164C497.813 37.0199 497.449 36.9767 497.097 37.0086C496.976 37.0202 496.857 37.0431 496.652 37.1172C496.447 37.1919 496.157 37.3177 495.895 37.4877C495.631 37.6584 495.397 37.8705 495.202 38.1159C495.023 38.3452 494.871 38.5942 494.749 38.858C494.646 39.0794 494.594 39.2465 494.546 39.4141C494.408 39.8969 494.296 40.4202 494.285 40.9129C494.281 41.0729 494.286 41.2336 494.303 41.3927C494.32 41.552 494.348 41.7101 494.393 42.0083C494.437 42.3057 494.498 42.743 494.557 43.1806C494.449 43.3007 494.307 43.3838 494.149 43.418C494.071 43.4356 493.99 43.4413 493.859 43.4217C493.728 43.4014 493.547 43.3559 493.38 43.2789C493.213 43.2019 493.06 43.094 492.929 42.9638C492.798 42.8331 492.691 42.6811 492.611 42.5143C492.438 42.1696 492.438 41.7768 492.429 41.4026C492.428 41.2083 492.436 41.0141 492.453 40.8206C492.471 40.6274 492.497 40.4348 492.546 40.1811C492.594 39.9274 492.664 39.613 492.742 39.3006C492.821 38.9881 492.909 38.6777 493.029 38.3271C493.15 37.9765 493.304 37.586 493.489 37.2098C493.673 36.8336 493.889 36.472 494.132 36.1314C494.35 35.8324 494.582 35.5445 494.829 35.2688C495.009 35.0662 495.097 34.9809 495.185 34.8956L495.424 34.6658C495.51 34.5878 495.588 34.503 495.66 34.4122C495.807 34.2276 495.867 34.108 495.763 33.938C495.696 33.8427 495.603 33.8245 495.516 33.8178C495.484 33.8165 495.451 33.8192 495.377 33.8401C495.159 33.9057 494.949 33.9966 494.751 34.111C494.502 34.2601 494.273 34.4404 494.041 34.616C493.912 34.7159 493.786 34.8191 493.663 34.9255C493.456 35.102 493.265 35.295 493.089 35.5025C493.004 35.6038 492.922 35.7081 492.792 35.8966C492.625 36.1377 492.468 36.3849 492.32 36.6377C492.156 36.9186 492.008 37.2081 491.874 37.5043C491.632 38.0444 491.434 38.6034 491.283 39.1757C491.218 39.4165 491.159 39.6589 491.106 39.9025C491.031 40.2384 490.982 40.5793 490.959 40.9225C490.912 41.5544 490.951 42.1756 491.18 42.824C491.235 42.9734 491.303 43.1175 491.388 43.2517C491.472 43.3858 491.573 43.51 491.687 43.6199C491.919 43.8434 492.18 43.9948 492.426 44.1073C492.551 44.1654 492.679 44.2169 492.81 44.262C493.179 44.3895 493.518 44.4566 493.861 44.3899C494.161 44.3304 494.411 44.2006 494.665 44.1472C494.748 44.1269 494.831 44.1096 494.916 44.0954C495.013 44.2079 495.111 44.3185 495.211 44.4287C495.31 44.539 495.411 44.6485 495.551 44.7803C495.691 44.9121 495.871 45.0659 496.069 45.1917C496.268 45.3172 496.484 45.4152 496.71 45.4852C496.936 45.5553 497.17 45.5975 497.488 45.6008C497.807 45.6041 498.21 45.5679 498.603 45.4826C498.996 45.3974 499.376 45.2616 499.734 45.0785C500.091 44.8955 500.422 44.6648 500.651 44.4882C500.879 44.3115 501.006 44.1887 501.13 44.0632C501.37 43.8242 501.594 43.5705 501.801 43.3035C501.966 43.0913 502.042 42.9645 502.135 42.7958C502.18 42.7128 502.221 42.6278 502.259 42.5412L502.614 42.6454L502.268 43.7604C502.222 43.9046 502.206 44.0567 502.22 44.2074C502.234 44.3581 502.279 44.5044 502.351 44.6376C502.397 44.7202 502.452 44.7903 502.518 44.8471C502.655 44.9639 502.836 45.0194 503.005 45.0048C503.092 44.9975 503.177 44.9719 503.239 44.9447C503.301 44.9175 503.34 44.8886 503.376 44.8564C503.546 44.7083 503.587 44.5409 503.659 44.3756C503.79 44.031 503.931 43.684 504.053 43.3417C504.068 43.2952 504.082 43.2484 504.094 43.2016L505.532 43.1747C505.548 43.347 505.565 43.519 505.576 43.6176C505.586 43.7165 505.59 43.7418 505.595 43.7667C505.606 43.8276 505.626 43.8869 505.653 43.943C505.676 43.9964 505.714 44.0788 505.756 44.1601C505.797 44.2411 505.841 44.3208 505.88 44.3816C505.965 44.5154 506.031 44.5665 506.116 44.619C506.294 44.7153 506.474 44.7677 506.666 44.5104C506.723 44.4277 506.748 44.3703 506.773 44.2906C506.802 44.193 506.828 44.0661 506.839 43.9513C506.844 43.8922 506.847 43.8331 506.848 43.7049C506.848 43.5754 506.846 43.3785 506.843 43.1816ZM496.118 41.7635C496.071 41.5828 496.036 41.3991 496.013 41.2137C495.966 40.8344 495.969 40.4506 496.023 40.0722C496.051 39.8634 496.091 39.6323 496.14 39.4025C496.189 39.1734 496.246 38.9456 496.286 38.7966C496.347 38.5529 496.441 38.3185 496.563 38.0993C496.581 38.0684 496.603 38.0399 496.629 38.0153C496.692 37.9638 496.738 37.9177 496.833 37.9273L496.817 37.9203C496.861 37.9124 496.907 37.9172 496.949 37.9341C496.991 37.9511 497.028 37.9796 497.054 38.0163C497.12 38.1069 497.163 38.1979 497.189 38.2965C497.237 38.5658 497.239 38.8055 497.226 39.0668C497.221 39.1704 497.212 39.274 497.191 39.4284C497.164 39.6172 497.133 39.8052 497.096 39.9922C497.058 40.1892 497.011 40.3842 496.954 40.5766C496.906 40.7393 496.841 40.8966 496.761 41.046C496.683 41.188 496.589 41.3204 496.48 41.4408C496.372 41.5619 496.251 41.6702 496.118 41.7635ZM505.256 41.6284C505.098 41.7466 504.951 41.7187 504.837 41.5743L505.169 40.9126L505.315 41.554C505.299 41.582 505.28 41.6071 505.256 41.6284Z" fill="black"/>
<path fill-rule="evenodd" clip-rule="evenodd" d="M500.489 35.1791C500.393 35.0046 500.301 34.828 500.214 34.6492C500.107 35.8718 500.06 37.0953 500.071 38.3198H500.336C500.362 37.2726 500.413 36.2254 500.489 35.1791ZM527.8 36.5873L527.178 36.5697L528.058 38.3825C527.839 37.8109 527.751 37.1975 527.8 36.5873ZM528.944 40.3916C528.741 39.7893 528.462 39.1688 527.975 38.5698C527.397 37.7741 526.7 37.0715 525.91 36.4863C525.37 36.0422 524.8 35.637 524.203 35.2738C523.904 35.0923 523.6 34.9212 523.29 34.7608C522.531 34.3763 521.743 34.0554 520.931 33.8016C519.306 33.2941 517.607 33.062 515.905 33.1146C515.302 33.1197 514.703 33.2153 514.128 33.3982C513.939 33.4599 513.756 33.5336 513.578 33.6176C513.222 33.7854 512.887 33.9941 512.579 34.2395C512.39 34.379 512.36 34.5516 512.43 34.7385C512.467 34.8418 512.588 34.9298 512.708 34.9852C512.769 35.0148 512.857 35.0387 512.958 35.0497C513.216 35.0666 513.511 34.9809 513.799 34.8083C513.864 34.7628 513.967 34.6682 513.938 34.5798C513.934 34.5403 513.879 34.4713 513.821 34.4633C513.721 34.4383 513.616 34.445 513.52 34.4826C513.698 34.3635 513.896 34.2764 514.104 34.2252C514.208 34.1993 514.314 34.1827 514.571 34.1678C514.829 34.1529 515.238 34.1399 515.646 34.1519C516.464 34.1773 517.277 34.2947 518.068 34.5018C518.762 34.6995 519.447 34.9226 520.124 35.1705C520.735 35.3951 521.339 35.6365 521.936 35.8943C522.403 36.0962 522.669 36.2267 522.931 36.3681C523.453 36.6514 523.95 36.979 524.416 37.3473C524.705 37.586 524.994 37.8247 525.268 38.0794C525.541 38.3347 525.8 38.6066 526.058 38.8782C526.47 39.3307 526.798 39.8528 527.026 40.4202C527.228 40.8933 527.252 41.4231 527.095 41.9126C527.016 42.1553 526.896 42.3823 526.739 42.583C526.582 42.7832 526.389 42.9545 526.081 43.1401C525.772 43.3251 525.348 43.524 524.909 43.6817C524.029 43.9979 523.098 44.1457 522.164 44.1173C521.551 44.0938 520.939 44.0379 520.332 43.9496L520.3 40.6469C521.511 40.7475 522.704 40.9959 523.854 41.3867C523.792 41.5166 523.699 41.6297 523.584 41.7164C523.502 41.7802 523.422 41.8502 523.342 41.9286C523.319 41.9596 523.305 41.9962 523.3 42.0347C523.295 42.0731 523.301 42.1121 523.316 42.1477C523.327 42.1716 523.342 42.1945 523.374 42.2237C523.406 42.253 523.454 42.2891 523.505 42.3204C523.643 42.4 523.834 42.4379 524.031 42.4273C524.332 42.3994 524.605 42.247 524.898 41.9641C524.981 41.8794 525.05 41.7821 525.103 41.6766C525.29 41.2931 525.283 40.8349 524.945 40.3966C524.885 40.3174 524.817 40.2439 524.742 40.1771C524.668 40.1109 524.588 40.0515 524.502 39.9998C524.047 39.7405 523.559 39.5427 523.051 39.4118C522.788 39.3463 522.522 39.2948 522.253 39.2578C521.632 39.1665 521.005 39.1169 520.377 39.1093C520.359 38.5853 520.289 38.0642 520.169 37.5538C520.134 37.3962 520.085 37.2423 520.021 37.0939C519.98 36.995 519.953 36.9462 519.915 36.8738C519.869 36.7805 519.747 36.659 519.636 36.6118C519.524 36.5624 519.399 36.5471 519.26 36.6799C519.236 36.7051 519.218 36.7339 519.204 36.7652C519.086 37.0519 518.996 37.349 518.934 37.6527C518.903 37.8045 518.881 37.9575 518.857 38.1395C518.811 38.508 518.756 38.9566 518.686 39.369C518.118 39.4341 517.555 39.5463 517.005 39.7043C516.614 39.8194 516.236 39.9756 515.878 40.1705C515.609 40.3152 515.362 40.4968 515.143 40.71C515.045 40.8118 514.971 40.9346 514.927 41.0692C514.884 41.2038 514.871 41.3466 514.891 41.4866C514.924 41.7088 515.028 41.9063 515.18 42.1185C515.222 42.1743 515.268 42.2277 515.354 42.319C515.44 42.41 515.568 42.5395 515.697 42.667C515.945 42.9114 516.179 43.1322 516.396 43.3078C516.501 43.3931 516.609 43.4745 516.719 43.5522C516.83 43.6295 516.943 43.7036 517.129 43.8185C517.622 44.1188 518.119 44.4133 518.619 44.702L518.66 44.8853L518.714 45.124C518.737 45.2253 518.768 45.3554 518.799 45.4859C518.84 45.6479 518.933 45.7918 519.065 45.895C519.281 46.0593 519.542 46.0922 519.779 46.0062C519.867 45.9746 519.958 45.9262 520.039 45.8634C520.119 45.801 520.189 45.7243 520.245 45.6383C520.3 45.5523 520.341 45.457 520.366 45.3574C520.996 45.4458 521.631 45.5047 522.267 45.5337C522.734 45.5568 523.201 45.5432 523.665 45.4932C524.289 45.4231 524.971 45.2937 525.598 45.0533C526.42 44.7446 527.174 44.2801 527.82 43.6853C527.937 43.5754 528.048 43.4589 528.152 43.3367C528.361 43.0924 528.543 42.8269 528.696 42.5445C529.07 41.8814 529.161 41.1334 528.944 40.3916ZM517.344 43.0146C517.15 42.917 516.964 42.8048 516.8 42.6969C516.636 42.589 516.494 42.4854 516.356 42.3751C516.1 42.1694 515.864 41.9413 515.649 41.6935C515.582 41.6158 515.569 41.5899 515.562 41.5627C515.549 41.5219 515.549 41.4784 515.561 41.4374C515.572 41.3964 515.595 41.3596 515.627 41.3313C515.648 41.3123 515.672 41.2977 515.781 41.2556C516.261 41.0719 516.759 40.941 517.268 40.8654C517.369 40.8501 517.428 40.8438 517.547 40.8332C517.706 40.8194 517.865 40.8078 518.025 40.7984C518.204 40.7884 518.384 40.7824 518.564 40.7808L518.564 43.426C518.14 43.347 517.729 43.2086 517.344 43.0146ZM534.024 35.375C534.014 35.2707 533.984 35.1694 533.935 35.0769C533.892 34.9967 533.836 34.9238 533.77 34.8611C533.672 34.7666 533.551 34.698 533.419 34.6615C533.288 34.6249 533.149 34.6215 533.016 34.6516C532.977 34.5518 532.914 34.4629 532.833 34.3927C532.752 34.3224 532.656 34.2728 532.551 34.2481C532.32 34.1889 532.083 34.1578 531.844 34.1555C531.691 34.1544 531.538 34.1659 531.387 34.19C531.17 34.2212 530.853 34.278 530.546 34.367C530.238 34.456 529.94 34.5772 529.655 34.7256C529.371 34.8737 529.101 35.0493 528.85 35.2482C528.747 35.3323 528.65 35.4237 528.56 35.5215C528.174 35.9484 527.944 36.4193 527.939 36.8718C527.935 36.9917 527.946 37.1122 527.961 37.2108C527.991 37.3987 528.035 37.5302 528.095 37.6843C528.158 37.8407 528.257 38.0203 528.363 38.2162L528.515 38.4977C528.552 38.5688 528.572 38.6053 528.597 38.6369C528.623 38.6687 528.655 38.6953 528.691 38.7152C528.768 38.7637 528.905 38.773 529.044 38.7541C529.122 38.7421 529.2 38.7179 529.271 38.682C529.342 38.6468 529.408 38.6003 529.462 38.5366C529.516 38.4725 529.558 38.3912 529.61 38.3752C529.662 38.3593 529.725 38.4098 529.789 38.4446C529.853 38.4795 529.919 38.4997 529.986 38.513C530.053 38.5266 530.121 38.5333 530.231 38.5333C530.339 38.5333 530.49 38.5263 530.62 38.5183C530.749 38.5104 530.857 38.5007 530.931 38.4924C531.006 38.4841 531.048 38.4762 531.138 38.4589C531.325 38.426 531.653 38.3536 531.914 38.2437C532.179 38.1408 532.488 37.9642 532.806 37.7132C533.121 37.4606 533.397 37.163 533.625 36.83C533.851 36.5063 533.976 36.1908 534.018 35.8558C534.038 35.6963 534.04 35.535 534.024 35.375ZM529.699 36.219C529.465 36.4317 529.246 36.6599 529.043 36.902C529.111 36.6238 529.236 36.3624 529.408 36.1339C529.581 35.9054 529.799 35.7145 530.048 35.5729C530.422 35.3607 530.831 35.2173 531.255 35.1496C530.69 35.434 530.167 35.7938 529.699 36.219ZM532.792 36.1072C532.771 36.2223 532.728 36.3321 532.664 36.4303C532.601 36.5285 532.519 36.613 532.422 36.6789C532.261 36.7838 532.101 36.8891 531.934 36.9834C531.603 37.1613 531.274 37.3436 530.922 37.4077C530.575 37.4767 530.218 37.4636 529.877 37.3695C530.378 36.645 531.103 36.1047 531.94 35.8316C532.142 35.7671 532.356 35.7514 532.565 35.7858C532.601 35.7917 532.636 35.8048 532.667 35.8242C532.698 35.8436 532.725 35.869 532.746 35.899C532.767 35.9289 532.782 35.9627 532.79 35.9984C532.798 36.0342 532.798 36.0711 532.792 36.1072ZM553.058 41.2549C553.052 41.0535 553.02 40.8538 552.962 40.6606C552.846 40.2732 552.63 39.9232 552.336 39.6456C552.052 39.4032 551.705 39.3354 551.361 39.438C551.251 39.4726 551.147 39.526 550.878 39.7269C550.609 39.9278 550.177 40.2764 549.759 40.6413C549.34 41.0058 548.935 41.3862 548.546 41.7818C548.634 41.5258 548.733 41.2738 548.847 41.0281C548.96 40.7827 549.087 40.5437 549.183 40.3667C549.278 40.1898 549.342 40.0749 549.4 39.957C549.458 39.8391 549.508 39.7176 549.541 39.6316C549.603 39.4659 549.605 39.3959 549.603 39.2827C549.6 39.2295 549.592 39.1771 549.581 39.1366C549.57 39.0961 549.557 39.0675 549.538 39.0429C549.413 38.8882 549.234 38.948 549.072 39.0529C549.024 39.088 548.98 39.1276 548.94 39.1711C548.738 39.3792 548.542 39.5936 548.353 39.8139C548.044 40.1818 547.783 40.5867 547.574 41.0192C547.47 41.2353 547.381 41.4581 547.325 41.6121C547.268 41.7659 547.245 41.8505 547.227 41.9362C547.188 42.1163 547.174 42.3009 547.186 42.4847C547.197 42.7138 547.24 43.0183 547.312 43.2875C547.347 43.423 547.39 43.5568 547.44 43.6876C547.251 44.0908 547.084 44.5037 546.938 44.9244C546.792 45.3449 546.67 45.7731 546.571 46.2071C546.487 46.5838 546.417 46.9636 546.362 47.3456C546.324 47.6112 546.322 47.7025 546.328 47.7935C546.353 48.1906 546.543 48.5963 546.929 49.0047C547.192 49.2501 547.517 49.2418 547.846 48.9672C548.02 48.2945 548.196 47.6245 548.356 46.9531L548.518 46.4162C548.572 46.2376 548.654 46.0679 548.759 45.8063C548.865 45.5447 549.007 45.1954 549.15 44.8457C549.467 44.7862 549.783 44.7147 550.095 44.6316C550.324 44.5714 550.546 44.485 550.755 44.3739C550.855 44.3205 550.953 44.2611 551.083 44.1714C551.212 44.0818 551.375 43.9612 551.533 43.8357C551.684 43.7157 551.831 43.5905 551.973 43.4602C552.2 43.2546 552.403 43.0231 552.576 42.7703C552.936 42.2516 553.082 41.7689 553.058 41.2549ZM551.708 42.0019C551.62 42.1414 551.512 42.2672 551.387 42.3745C551.166 42.5548 550.935 42.7231 550.696 42.8785C550.614 42.9316 550.521 42.9635 550.424 42.971C550.326 42.9785 550.229 42.9616 550.14 42.9217C550.474 42.1675 550.95 41.485 551.543 40.9116C551.64 40.8216 551.721 40.8286 551.798 40.8521C551.876 40.8714 551.959 40.9889 551.955 41.062C551.97 41.3931 551.884 41.721 551.708 42.0019ZM505.133 50.8597C505.109 50.6936 505.055 50.5332 504.973 50.3863C504.923 50.2964 504.862 50.2133 504.79 50.1392C504.574 49.9148 504.321 49.8198 504.069 49.7727C503.934 49.746 503.797 49.732 503.66 49.7308H501.897V50.2664H502.389V53.4339H501.897V53.9698H503.509V53.4339H503.017V52.4123H503.766C504.095 52.405 504.432 52.3715 504.79 51.9953C504.927 51.8427 505.028 51.662 505.088 51.4657C505.147 51.2695 505.163 51.0626 505.133 50.8597ZM504.242 51.6709C504.053 51.8239 503.871 51.8349 503.695 51.8389H503.019V50.3192H503.671C503.889 50.3202 504.114 50.3617 504.3 50.5513C504.408 50.662 504.479 50.8036 504.503 50.9564C504.54 51.2206 504.467 51.471 504.242 51.6709Z" fill="black"/>
</g>
<defs>
<clipPath id="clip0_9_855">
<rect width="120" height="64" fill="white" transform="translate(97)"/>
</clipPath>
<clipPath id="clip1_9_855">
<rect width="64" height="64" fill="white" transform="translate(598)"/>
</clipPath>
<clipPath id="clip2_9_855">
<rect width="64" height="64" fill="white" transform="translate(240)"/>
</clipPath>
<clipPath id="clip3_9_855">
<rect width="64" height="64" fill="white" transform="translate(328)"/>
</clipPath>
<clipPath id="clip4_9_855">
<rect width="64" height="64" fill="white"/>
</clipPath>
<clipPath id="clip5_9_855">
<rect width="64" height="64" fill="white" transform="translate(490)"/>
</clipPath>
</defs>
</svg>
