<svg xmlns="http://www.w3.org/2000/svg" xmlns:xlink="http://www.w3.org/1999/xlink">
    <symbol id="logo">
        <path fill-rule="evenodd" clip-rule="evenodd"
            d="M0 14.5172V55H8.52969V30.016L19.0564 46.3233H24.0092L31.8094 34.2779L33.4489 31.7491L29.0414 23.9896L27.4019 26.5276L21.5608 35.5672L7.90495 14.5172H0ZM112.953 22.0722H106.598V47.3455H112.953C120.844 47.3455 125.1 43.0559 125.1 34.7089C125.1 26.3618 120.844 22.0741 112.953 22.0741V22.0722ZM112.953 14.4214C127.088 14.4214 133.783 22.9416 133.783 34.7089C133.783 46.4762 127.088 54.9964 112.953 54.9964H98.0842V14.4214H112.953ZM153.119 14.4214C157.648 14.4214 162.232 15.5357 165.506 17.4309V25.2328C162.286 22.8937 157.976 21.7223 153.719 21.7776C149.571 21.8328 147.496 23.0042 147.496 25.4004C147.496 32.1451 168.398 29.6365 168.398 43.5145C168.398 52.265 161.522 54.9964 153.5 54.9964C148.206 54.9964 143.295 53.7145 139.366 51.4859V43.5145C143.381 46.2187 148.089 47.6539 152.901 47.6402C157.321 47.6402 160.049 46.6917 160.049 43.905C160.049 36.6041 139.147 39.3355 139.147 25.5127C139.147 17.9871 145.588 14.4214 153.119 14.4214ZM202.813 14.4214V22.0722H183.347V30.7103H201.11V38.3022H183.347V47.3455H203.154V54.9964H174.833V14.4214H202.813ZM210.036 54.9964V14.4214H218.038L236.54 40.9121C236.424 39.0591 236.368 37.2028 236.37 35.3461V14.4214H244.884V54.9964H236.881L218.379 28.5057C218.491 30.1872 218.549 32.2151 218.549 34.0716V54.9964H210.036ZM72.9249 21.8623C72.9702 21.0996 72.7951 20.34 72.4211 19.6779L69.4491 14.4251H66.3814L70.1172 21.0335C70.2616 21.2913 70.3086 21.586 70.249 21.8641H72.9249V21.8623Z"
            fill="#DBDBDB" />
        <path fill-rule="evenodd" clip-rule="evenodd"
            d="M92.4181 36.5506L83.029 53.1544C82.7142 53.7146 82.2602 54.1802 81.7127 54.5042C81.1652 54.8282 80.5437 54.9992 79.9107 54.9999H61.1324C60.4991 54.9995 59.8771 54.8287 59.3293 54.5047C58.7815 54.1806 58.3272 53.7149 58.0123 53.1544L52.4312 43.2805L50.8946 40.5694L48.6231 36.5506C48.3079 35.99 48.1421 35.355 48.1421 34.7087C48.1421 34.0625 48.3079 33.4275 48.6231 32.8669L58.0123 16.2631C58.3274 15.7033 58.7819 15.2383 59.3298 14.9152C59.8777 14.5921 60.4995 14.4224 61.1324 14.4231H66.3831L70.1171 21.0315C70.2615 21.2894 70.3085 21.584 70.2489 21.8622H63.2576L55.9936 34.7124L59.2907 40.5417L60.6412 42.9361L63.2576 47.5609H77.7855L85.0476 34.7124L77.7855 21.8622H72.9248C72.9702 21.0994 72.7951 20.3399 72.421 19.6778L69.449 14.4249H79.9107C80.5432 14.4245 81.1647 14.5944 81.7122 14.9175C82.2598 15.2406 82.714 15.7054 83.029 16.2649L92.4181 32.8669C93.0609 34.0089 93.0609 35.4086 92.4181 36.5524"
            fill="#DBDBDB" />
        <mask id="mask0_9_798" style="mask-type:alpha" maskUnits="userSpaceOnUse" x="25" y="0"
            width="48" height="44">
            <path d="M25.1885 0H72.9287V43.2806H25.1885V0Z" fill="#F17900" />
        </mask>
        <g mask="url(#mask0_9_798)">
            <path fill-rule="evenodd" clip-rule="evenodd"
                d="M42.9409 40.5691V43.2802H52.4294L50.8946 40.5691H42.9391H42.9409ZM72.4193 19.6775L69.4472 14.4247L62.4017 1.95933C62.0639 1.3631 61.5782 0.868004 60.9935 0.523716C60.4087 0.179428 59.7455 -0.00194255 59.0704 -0.00219727H39.0462C37.6703 -0.00219727 36.4064 0.74926 35.7167 1.95933L25.6992 19.6775C25.3639 20.2747 25.1875 20.9509 25.1875 21.639C25.1875 22.3272 25.3639 23.0034 25.6992 23.6005L27.3134 26.4609L31.7118 34.2333L34.4329 39.0459V33.6236L33.3459 31.6953L28.9492 23.9173L28.0031 22.2487C27.8989 22.0634 27.844 21.8535 27.844 21.6399C27.844 21.4263 27.8989 21.2165 28.0031 21.0312L38.0152 3.31858C38.1199 3.13367 38.2704 2.98014 38.4517 2.87345C38.633 2.76675 38.8387 2.71065 39.048 2.71078H59.0722C59.4947 2.71078 59.8919 2.94101 60.1032 3.31858L66.3813 14.4247L70.1153 21.0312C70.2598 21.2891 70.3085 21.5838 70.2489 21.8619C70.2274 21.9979 70.1821 22.1289 70.1153 22.2487L60.1032 39.9595C60.0191 40.1123 59.9024 40.2439 59.7618 40.3447C59.6212 40.4454 59.4602 40.5126 59.2907 40.5415L60.6413 42.9358C61.3803 42.5992 61.9963 42.0333 62.4017 41.3187L72.4193 23.6005C72.7186 23.0692 72.8917 22.4738 72.9248 21.8619C72.9697 21.099 72.7939 20.3394 72.4193 19.6775Z"
                fill="#F17900" />
        </g>
        <path fill-rule="evenodd" clip-rule="evenodd"
            d="M42.9428 14.4249V54.9999H34.433V30.0121L33.3478 31.6956L28.9512 23.9194L35.0559 14.4231L42.9428 14.4249Z"
            fill="#DBDBDB" />
    </symbol>
    <symbol id="settings">
        <g clip-path="url(#clip0_37_121)">
            <path
                d="M26 48H22C20.346 48 19 46.654 19 45V41.276C17.7199 40.906 16.4852 40.3938 15.319 39.749L12.685 42.384C11.551 43.518 9.576 43.516 8.442 42.384L5.613 39.556C5.046 38.99 4.734 38.236 4.734 37.435C4.734 36.634 5.046 35.88 5.613 35.314L8.248 32.678C7.60317 31.5128 7.09162 30.2787 6.723 28.999H3C1.346 28.999 0 27.653 0 25.999V21.999C0 21.197 0.312 20.444 0.878 19.878C1.1561 19.5986 1.48682 19.377 1.85104 19.2262C2.21526 19.0753 2.60577 18.9981 3 18.999H6.724C7.094 17.721 7.604 16.488 8.25 15.32L5.616 12.685C5.05408 12.1222 4.73847 11.3593 4.73847 10.564C4.73847 9.76867 5.05408 9.00584 5.616 8.443L8.444 5.614C9.577 4.482 11.553 4.48 12.687 5.614L15.322 8.249C16.4873 7.60504 17.7209 7.09352 19 6.724V3C19 1.346 20.346 0 22 0H26C27.654 0 29 1.346 29 3V6.724C30.28 7.094 31.512 7.605 32.678 8.249L35.313 5.614C36.447 4.482 38.422 4.48 39.556 5.614L42.385 8.442C42.952 9.008 43.264 9.762 43.264 10.563C43.264 11.364 42.952 12.118 42.385 12.684L39.751 15.319C40.396 16.4846 40.9079 17.719 41.277 18.999H45C46.654 18.999 48 20.345 48 21.999V25.999C48 26.801 47.688 27.554 47.122 28.12C46.556 28.686 45.802 28.999 45 28.999H41.276C40.9062 30.2788 40.3944 31.5131 39.75 32.679L42.384 35.314C42.9459 35.8768 43.2615 36.6397 43.2615 37.435C43.2615 38.2303 42.9459 38.9932 42.384 39.556L39.556 42.385C38.422 43.518 36.447 43.518 35.313 42.385L32.68 39.75C31.5144 40.3943 30.2804 40.9061 29.001 41.276V45C28.9997 45.7954 28.683 46.5579 28.1205 47.1202C27.558 47.6826 26.7954 47.9989 26 48ZM15.157 37.498C15.336 37.498 15.517 37.546 15.678 37.644C17.0892 38.5079 18.6267 39.146 20.235 39.535C20.4531 39.5877 20.6471 39.7122 20.7858 39.8885C20.9246 40.0648 21 40.2827 21 40.507V45C21 45.552 21.449 46 22 46H26C26.551 46 27 45.552 27 45V40.507C27 40.2827 27.0754 40.0648 27.2142 39.8885C27.3529 39.7122 27.5469 39.5877 27.765 39.535C29.3729 39.1462 30.9101 38.5085 32.321 37.645C32.717 37.404 33.223 37.465 33.55 37.791L36.728 40.97C37.103 41.344 37.767 41.346 38.143 40.97L40.971 38.141C41.1585 37.9535 41.2638 37.6992 41.2638 37.434C41.2638 37.1688 41.1585 36.9145 40.971 36.727L37.792 33.548C37.6332 33.3893 37.5325 33.1817 37.506 32.9588C37.4795 32.7359 37.5288 32.5105 37.646 32.319C38.5094 30.9081 39.1468 29.3709 39.535 27.763C39.5875 27.5448 39.712 27.3505 39.8883 27.2116C40.0646 27.0726 40.2825 26.9971 40.507 26.997H45C45.1313 26.9975 45.2614 26.9721 45.3828 26.9221C45.5043 26.8722 45.6146 26.7987 45.7076 26.706C45.8005 26.6132 45.8742 26.503 45.9244 26.3817C45.9746 26.2604 46.0003 26.1303 46 25.999V21.999C46 21.447 45.551 20.999 45 20.999H40.507C40.2825 20.9991 40.0644 20.9236 39.8881 20.7846C39.7118 20.6457 39.5874 20.4513 39.535 20.233C39.1469 18.6251 38.5095 17.0878 37.646 15.677C37.5288 15.4855 37.4795 15.2601 37.506 15.0372C37.5325 14.8143 37.6332 14.6067 37.792 14.448L40.971 11.269C41.157 11.082 41.264 10.825 41.264 10.562C41.264 10.299 41.157 10.041 40.971 9.855L38.142 7.027C37.9511 6.84559 37.6978 6.74443 37.4345 6.74443C37.1712 6.74443 36.9179 6.84559 36.727 7.027L33.548 10.206C33.3897 10.3656 33.1821 10.4668 32.959 10.4933C32.7358 10.5198 32.5102 10.47 32.319 10.352C30.9087 9.48886 29.3722 8.85149 27.765 8.463C27.547 8.41084 27.353 8.28675 27.2142 8.11076C27.0754 7.93477 26.9999 7.71714 27 7.493V3C27 2.448 26.551 2 26 2H22C21.449 2 21 2.448 21 3V7.493C21 7.71735 20.9246 7.93517 20.7858 8.11147C20.6471 8.28776 20.4531 8.41228 20.235 8.465C18.6272 8.85344 17.09 9.4908 15.679 10.354C15.4877 10.4712 15.2625 10.5206 15.0397 10.4941C14.8169 10.4676 14.6095 10.3668 14.451 10.208L11.272 7.029C11.0811 6.84759 10.8278 6.74643 10.5645 6.74643C10.3012 6.74643 10.0479 6.84759 9.857 7.029L7.03 9.857C6.84253 10.0445 6.73721 10.2988 6.73721 10.564C6.73721 10.8292 6.84253 11.0835 7.03 11.271L10.209 14.45C10.3678 14.6087 10.4685 14.8163 10.495 15.0392C10.5215 15.2621 10.4722 15.4875 10.355 15.679C9.49164 17.0895 8.85427 18.6264 8.466 20.234C8.41347 20.4522 8.28904 20.6465 8.11273 20.7854C7.93641 20.9244 7.71848 20.9999 7.494 21H3C2.86861 20.9995 2.73842 21.0249 2.61692 21.0749C2.49542 21.125 2.38502 21.1985 2.29207 21.2914C2.19912 21.3842 2.12546 21.4946 2.07533 21.616C2.02521 21.7374 1.9996 21.8676 2 21.999V25.999C2 26.551 2.449 26.999 3 26.999H7.493C7.955 26.999 8.357 27.315 8.465 27.765C8.85343 29.3725 9.49079 30.9094 10.354 32.32C10.4712 32.5115 10.5205 32.7369 10.494 32.9598C10.4675 33.1827 10.3668 33.3903 10.208 33.549L7.029 36.729C6.843 36.916 6.736 37.173 6.736 37.436C6.736 37.699 6.843 37.957 7.029 38.143L9.858 40.971C10.0489 41.1524 10.3022 41.2536 10.5655 41.2536C10.8288 41.2536 11.0821 41.1524 11.273 40.971L14.451 37.792C14.5433 37.6986 14.6533 37.6245 14.7745 37.5741C14.8957 37.5236 15.0257 37.4977 15.157 37.498Z"
                fill="white" />
            <path
                d="M24 34C18.486 34 14 29.514 14 24C14 18.486 18.486 14 24 14C29.514 14 34 18.486 34 24C34 29.514 29.515 34 24 34ZM24 16C19.589 16 16 19.589 16 24C16 28.411 19.589 32 24 32C28.411 32 32 28.411 32 24C32 19.589 28.412 16 24 16Z"
                fill="white" />
        </g>
        <defs>
            <clipPath id="clip0_37_121">
                <rect width="48" height="48" fill="white" />
            </clipPath>
        </defs>
    </symbol>
</svg>